<svg width="96" height="33" viewBox="0 0 96 33" fill="none" xmlns="http://www.w3.org/2000/svg">
  <g clip-path="url(#clip0_2007_5932)">
  <rect x="0.5" y="1.31824" width="95" height="31" rx="5.5" fill="#2C363F" stroke="#2C363F"/>
  <path d="M19.8152 17.059C19.8238 16.3912 20.0012 15.7365 20.3308 15.1558C20.6604 14.575 21.1316 14.0871 21.7005 13.7373C21.3391 13.2212 20.8623 12.7964 20.308 12.4968C19.7538 12.1972 19.1373 12.0309 18.5075 12.0112C17.1641 11.8702 15.8618 12.815 15.1772 12.815C14.4794 12.815 13.4254 12.0252 12.2904 12.0485C11.5563 12.0722 10.8408 12.2857 10.2137 12.6682C9.58659 13.0506 9.06924 13.589 8.71207 14.2308C7.16487 16.9096 8.31894 20.8464 9.80103 23.0117C10.5425 24.072 11.4092 25.2563 12.5431 25.2143C13.6528 25.1683 14.0672 24.5067 15.4067 24.5067C16.7337 24.5067 17.1225 25.2143 18.2795 25.1876C19.4702 25.1683 20.2204 24.1226 20.9359 23.0523C21.4686 22.2968 21.8786 21.4618 22.1506 20.5783C21.4588 20.2857 20.8685 19.796 20.4532 19.1701C20.0379 18.5443 19.816 17.8101 19.8152 17.059Z" fill="white"/>
  <path d="M17.6301 10.5869C18.2793 9.80756 18.5992 8.80582 18.5217 7.79443C17.5298 7.89861 16.6136 8.37266 15.9556 9.12212C15.6339 9.48825 15.3875 9.9142 15.2305 10.3756C15.0735 10.837 15.009 11.3249 15.0407 11.8112C15.5368 11.8163 16.0276 11.7088 16.4761 11.4967C16.9246 11.2847 17.3192 10.9736 17.6301 10.5869Z" fill="white"/>
  <path d="M33.8422 22.53H30.0555L29.1461 25.2152H27.5422L31.1289 15.2808H32.7953L36.382 25.2152H34.7508L33.8422 22.53ZM30.4476 21.2909H33.4492L31.9696 16.9331H31.9281L30.4476 21.2909Z" fill="white"/>
  <path d="M44.1274 21.5943C44.1274 23.845 42.9227 25.2911 41.1047 25.2911C40.6442 25.3152 40.1862 25.2091 39.7832 24.985C39.3801 24.7609 39.0483 24.4278 38.8258 24.0239H38.7914V27.6114H37.3047V17.9724H38.7438V19.1771H38.7711C39.0039 18.7751 39.3413 18.4437 39.7474 18.2183C40.1535 17.9928 40.6131 17.8816 41.0774 17.8966C42.9156 17.8966 44.1274 19.3497 44.1274 21.5943ZM42.5992 21.5943C42.5992 20.1279 41.8414 19.1638 40.6852 19.1638C39.5492 19.1638 38.7852 20.1482 38.7852 21.5943C38.7852 23.0536 39.5492 24.031 40.6852 24.031C41.8414 24.031 42.5992 23.0739 42.5992 21.5943Z" fill="white"/>
  <path d="M52.0992 21.5943C52.0992 23.845 50.8945 25.2911 49.0766 25.2911C48.6161 25.3152 48.1581 25.2091 47.755 24.985C47.352 24.7609 47.0202 24.4278 46.7977 24.0239H46.7633V27.6114H45.2766V17.9724H46.7156V19.1771H46.743C46.9757 18.7751 47.3131 18.4437 47.7192 18.2183C48.1253 17.9928 48.5849 17.8816 49.0492 17.8966C50.8875 17.8966 52.0992 19.3497 52.0992 21.5943ZM50.5711 21.5943C50.5711 20.1279 49.8133 19.1638 48.657 19.1638C47.5211 19.1638 46.757 20.1482 46.757 21.5943C46.757 23.0536 47.5211 24.031 48.657 24.031C49.8133 24.031 50.5711 23.0739 50.5711 21.5943H50.5711Z" fill="white"/>
  <path d="M57.368 22.4472C57.4782 23.4323 58.4352 24.0792 59.743 24.0792C60.9962 24.0792 61.8977 23.4323 61.8977 22.544C61.8977 21.7729 61.354 21.3112 60.0665 20.9948L58.779 20.6846C56.9548 20.244 56.1079 19.3909 56.1079 18.0065C56.1079 16.2925 57.6016 15.1151 59.7227 15.1151C61.8219 15.1151 63.261 16.2925 63.3094 18.0065H61.8086C61.7188 17.0151 60.8993 16.4167 59.7016 16.4167C58.504 16.4167 57.6844 17.0222 57.6844 17.9034C57.6844 18.6057 58.2079 19.019 59.4883 19.3354L60.5829 19.6042C62.6211 20.0862 63.468 20.905 63.468 22.3581C63.468 24.2166 61.9875 25.3807 59.6329 25.3807C57.4297 25.3807 55.9422 24.244 55.8461 22.4471L57.368 22.4472Z" fill="white"/>
  <path d="M66.6766 16.2581V17.9721H68.0539V19.1495H66.6766V23.1424C66.6766 23.7627 66.9524 24.0518 67.5578 24.0518C67.7213 24.049 67.8846 24.0375 68.0469 24.0174V25.1877C67.7747 25.2386 67.498 25.2616 67.2211 25.2565C65.7547 25.2565 65.1828 24.7057 65.1828 23.301V19.1495H64.1297V17.9721H65.1828V16.2581H66.6766Z" fill="white"/>
  <path d="M68.8524 21.594C68.8524 19.3151 70.1945 17.8831 72.2875 17.8831C74.3875 17.8831 75.7234 19.3151 75.7234 21.594C75.7234 23.8792 74.3945 25.3049 72.2875 25.3049C70.1812 25.3049 68.8524 23.8791 68.8524 21.594ZM74.2086 21.594C74.2086 20.0307 73.4922 19.1081 72.2875 19.1081C71.0828 19.1081 70.3672 20.0377 70.3672 21.594C70.3672 23.1635 71.0828 24.0792 72.2875 24.0792C73.4922 24.0792 74.2086 23.1635 74.2086 21.594H74.2086Z" fill="white"/>
  <path d="M76.9485 17.9723H78.3665V19.2051H78.4009C78.4968 18.8201 78.7224 18.4798 79.0396 18.2415C79.3569 18.0032 79.7465 17.8814 80.143 17.8965C80.3144 17.8959 80.4852 17.9145 80.6524 17.952V19.3426C80.4361 19.2765 80.2105 19.2462 79.9844 19.2528C79.7684 19.244 79.5531 19.2821 79.3532 19.3644C79.1534 19.4467 78.9737 19.5713 78.8265 19.7296C78.6793 19.8879 78.5681 20.0762 78.5006 20.2816C78.4331 20.4869 78.4107 20.7044 78.4352 20.9192V25.2153H76.9485L76.9485 17.9723Z" fill="white"/>
  <path d="M87.507 23.0877C87.307 24.4026 86.0266 25.3049 84.3883 25.3049C82.2813 25.3049 80.9734 23.8932 80.9734 21.6284C80.9734 19.3565 82.2883 17.8831 84.3258 17.8831C86.3297 17.8831 87.5899 19.2596 87.5899 21.4557V21.9651H82.4742V22.0549C82.4506 22.3215 82.484 22.59 82.5721 22.8427C82.6603 23.0954 82.8012 23.3264 82.9855 23.5204C83.1697 23.7145 83.3932 23.8671 83.641 23.9681C83.8888 24.0692 84.1553 24.1163 84.4227 24.1065C84.774 24.1394 85.1266 24.058 85.4279 23.8745C85.7293 23.6909 85.9634 23.415 86.0953 23.0877L87.507 23.0877ZM82.4813 20.926H86.1024C86.1157 20.6863 86.0794 20.4465 85.9956 20.2215C85.9119 19.9966 85.7825 19.7913 85.6157 19.6187C85.4489 19.4461 85.2482 19.3098 85.0262 19.2185C84.8043 19.1271 84.5658 19.0826 84.3258 19.0877C84.0837 19.0863 83.8437 19.1328 83.6197 19.2246C83.3956 19.3164 83.192 19.4517 83.0205 19.6226C82.849 19.7935 82.7131 19.9966 82.6205 20.2204C82.528 20.4441 82.4806 20.6839 82.4813 20.926V20.926Z" fill="white"/>
  <path d="M30.261 7.80302C30.5727 7.78066 30.8854 7.82774 31.1767 7.94089C31.468 8.05404 31.7305 8.23042 31.9454 8.45732C32.1603 8.68422 32.3221 8.95598 32.4192 9.253C32.5164 9.55001 32.5464 9.86488 32.5071 10.1749C32.5071 11.6999 31.6828 12.5765 30.261 12.5765H28.5367V7.80302H30.261ZM29.2781 11.9014H30.1781C30.4009 11.9147 30.6238 11.8782 30.8306 11.7945C31.0374 11.7108 31.223 11.5821 31.3738 11.4176C31.5246 11.2532 31.6368 11.0572 31.7023 10.8439C31.7678 10.6306 31.7849 10.4054 31.7524 10.1846C31.7825 9.96476 31.7637 9.74094 31.6972 9.52921C31.6307 9.31748 31.5182 9.12308 31.3677 8.95993C31.2173 8.79679 31.0326 8.66894 30.827 8.58555C30.6213 8.50216 30.3997 8.4653 30.1781 8.47759H29.2781V11.9014Z" fill="white"/>
  <path d="M33.3448 10.7736C33.3221 10.5369 33.3492 10.2981 33.4243 10.0724C33.4993 9.84674 33.6208 9.63927 33.7807 9.46328C33.9407 9.2873 34.1356 9.14669 34.3531 9.05047C34.5706 8.95424 34.8058 8.90454 35.0436 8.90454C35.2814 8.90454 35.5166 8.95424 35.7341 9.05047C35.9516 9.14669 36.1465 9.2873 36.3065 9.46328C36.4664 9.63927 36.5878 9.84674 36.6629 10.0724C36.738 10.2981 36.7651 10.5369 36.7424 10.7736C36.7655 11.0106 36.7387 11.2498 36.6639 11.4758C36.589 11.7018 36.4677 11.9097 36.3077 12.086C36.1477 12.2624 35.9526 12.4033 35.7349 12.4997C35.5172 12.5961 35.2817 12.6459 35.0436 12.6459C34.8055 12.6459 34.57 12.5961 34.3523 12.4997C34.1346 12.4033 33.9395 12.2624 33.7795 12.086C33.6195 11.9097 33.4982 11.7018 33.4233 11.4758C33.3484 11.2498 33.3217 11.0106 33.3448 10.7736ZM36.0112 10.7736C36.0112 9.99279 35.6604 9.53615 35.0448 9.53615C34.4268 9.53615 34.0792 9.99279 34.0792 10.7737C34.0792 11.5608 34.4268 12.0139 35.0448 12.0139C35.6604 12.0139 36.0112 11.5576 36.0112 10.7736H36.0112Z" fill="white"/>
  <path d="M41.2586 12.5765H40.5211L39.7766 9.92334H39.7203L38.9789 12.5765H38.2485L37.2555 8.97412H37.9766L38.6219 11.7229H38.675L39.4157 8.97412H40.0977L40.8383 11.7229H40.8946L41.5367 8.97412H42.2477L41.2586 12.5765Z" fill="white"/>
  <path d="M43.0828 8.97421H43.7672V9.54647H43.8203C43.9105 9.34093 44.0625 9.16864 44.2552 9.05359C44.4478 8.93855 44.6716 8.88649 44.8953 8.90467C45.0706 8.89149 45.2466 8.91792 45.4103 8.982C45.574 9.04607 45.7211 9.14616 45.8409 9.27483C45.9606 9.40351 46.0499 9.55747 46.102 9.72533C46.1542 9.89319 46.1679 10.0706 46.1422 10.2445V12.5765H45.4313V10.423C45.4313 9.84413 45.1797 9.55624 44.6539 9.55624C44.5349 9.55069 44.4161 9.57095 44.3057 9.61561C44.1952 9.66028 44.0957 9.7283 44.014 9.815C43.9323 9.90171 43.8704 10.0051 43.8323 10.118C43.7943 10.2309 43.7812 10.3507 43.7938 10.4691V12.5765H43.0828L43.0828 8.97421Z" fill="white"/>
  <path d="M47.275 7.56787H47.986V12.5765H47.275V7.56787Z" fill="white"/>
  <path d="M48.9744 10.7737C48.9518 10.537 48.9789 10.2981 49.054 10.0724C49.1291 9.84676 49.2505 9.63928 49.4105 9.46329C49.5705 9.2873 49.7654 9.14669 49.9829 9.05047C50.2004 8.95425 50.4356 8.90454 50.6735 8.90454C50.9113 8.90454 51.1465 8.95425 51.364 9.05047C51.5815 9.14669 51.7765 9.2873 51.9365 9.46329C52.0964 9.63928 52.2178 9.84676 52.2929 10.0724C52.368 10.2981 52.3951 10.537 52.3725 10.7737C52.3955 11.0107 52.3688 11.2499 52.2939 11.4759C52.219 11.7019 52.0976 11.9098 51.9376 12.0861C51.7776 12.2624 51.5825 12.4033 51.3648 12.4998C51.147 12.5962 50.9116 12.646 50.6735 12.646C50.4354 12.646 50.1999 12.5962 49.9822 12.4998C49.7645 12.4033 49.5694 12.2624 49.4093 12.0861C49.2493 11.9098 49.128 11.7019 49.0531 11.4759C48.9782 11.2499 48.9514 11.0107 48.9744 10.7737ZM51.6408 10.7737C51.6408 9.99285 51.2901 9.53622 50.6744 9.53622C50.0565 9.53622 49.7088 9.99285 49.7088 10.7737C49.7088 11.5608 50.0565 12.014 50.6744 12.014C51.2901 12.0139 51.6409 11.5577 51.6409 10.7737H51.6408Z" fill="white"/>
  <path d="M53.1211 11.5577C53.1211 10.9092 53.6039 10.5354 54.4609 10.4823L55.4367 10.426V10.1151C55.4367 9.73461 55.1852 9.51977 54.6992 9.51977C54.3023 9.51977 54.0273 9.66548 53.9484 9.92017H53.2602C53.3328 9.30141 53.9148 8.90454 54.732 8.90454C55.6352 8.90454 56.1445 9.35414 56.1445 10.1151V12.5764H55.4602V12.0702H55.4039C55.2897 12.2518 55.1294 12.3998 54.9393 12.4992C54.7492 12.5985 54.5361 12.6457 54.3219 12.6358C54.1706 12.6515 54.0178 12.6354 53.8732 12.5884C53.7286 12.5414 53.5954 12.4647 53.4823 12.3631C53.3692 12.2616 53.2786 12.1374 53.2164 11.9987C53.1541 11.8599 53.1217 11.7097 53.1211 11.5577ZM55.4367 11.2498V10.9487L54.557 11.0049C54.0609 11.0381 53.8359 11.2069 53.8359 11.5245C53.8359 11.8487 54.1172 12.0373 54.5039 12.0373C54.6172 12.0488 54.7317 12.0374 54.8405 12.0037C54.9493 11.97 55.0502 11.9148 55.1373 11.8413C55.2243 11.7679 55.2957 11.6776 55.3471 11.576C55.3985 11.4744 55.429 11.3635 55.4367 11.2498Z" fill="white"/>
  <path d="M57.0789 10.7737C57.0789 9.63546 57.6641 8.91437 58.5742 8.91437C58.7994 8.90399 59.0228 8.95792 59.2184 9.06983C59.414 9.18175 59.5738 9.34703 59.6789 9.54637H59.7321V7.56787H60.443V12.5765H59.7617V12.0073H59.7055C59.5922 12.2053 59.4269 12.3685 59.2275 12.4793C59.0281 12.5901 58.8022 12.6442 58.5742 12.6358C57.6578 12.6359 57.0789 11.9148 57.0789 10.7737ZM57.8133 10.7737C57.8133 11.5378 58.1735 11.9976 58.7758 11.9976C59.375 11.9976 59.7453 11.5312 59.7453 10.7769C59.7453 10.0261 59.3711 9.55304 58.7758 9.55304C58.1774 9.55304 57.8133 10.0159 57.8133 10.7737H57.8133Z" fill="white"/>
  <path d="M63.3838 10.7736C63.3612 10.5369 63.3883 10.2981 63.4633 10.0724C63.5384 9.84674 63.6598 9.63927 63.8198 9.46328C63.9797 9.2873 64.1747 9.14669 64.3922 9.05047C64.6096 8.95424 64.8448 8.90454 65.0827 8.90454C65.3205 8.90454 65.5557 8.95424 65.7731 9.05047C65.9906 9.14669 66.1856 9.2873 66.3455 9.46328C66.5055 9.63927 66.6269 9.84674 66.702 10.0724C66.7771 10.2981 66.8041 10.5369 66.7815 10.7736C66.8046 11.0106 66.7778 11.2498 66.7029 11.4758C66.6281 11.7018 66.5067 11.9097 66.3467 12.086C66.1867 12.2624 65.9916 12.4033 65.7739 12.4997C65.5562 12.5961 65.3208 12.6459 65.0827 12.6459C64.8446 12.6459 64.6091 12.5961 64.3914 12.4997C64.1737 12.4033 63.9786 12.2624 63.8186 12.086C63.6586 11.9097 63.5373 11.7018 63.4624 11.4758C63.3875 11.2498 63.3608 11.0106 63.3838 10.7736ZM66.0502 10.7736C66.0502 9.99279 65.6994 9.53615 65.0838 9.53615C64.4659 9.53615 64.1182 9.99279 64.1182 10.7737C64.1182 11.5608 64.4659 12.0139 65.0838 12.0139C65.6995 12.0139 66.0502 11.5576 66.0502 10.7736Z" fill="white"/>
  <path d="M67.736 8.97421H68.4203V9.54647H68.4735C68.5636 9.34093 68.7156 9.16864 68.9083 9.05359C69.101 8.93855 69.3248 8.88649 69.5485 8.90467C69.7237 8.89149 69.8997 8.91792 70.0634 8.982C70.2271 9.04607 70.3743 9.14616 70.494 9.27483C70.6138 9.40351 70.703 9.55747 70.7552 9.72533C70.8073 9.89319 70.8211 10.0706 70.7953 10.2445V12.5765H70.0844V10.423C70.0844 9.84413 69.8328 9.55624 69.3071 9.55624C69.1881 9.55069 69.0693 9.57095 68.9588 9.61561C68.8484 9.66028 68.7489 9.7283 68.6672 9.815C68.5855 9.90171 68.5235 10.0051 68.4855 10.118C68.4475 10.2309 68.4343 10.3507 68.4469 10.4691V12.5765H67.736V8.97421Z" fill="white"/>
  <path d="M74.8125 8.07727V8.99055H75.593V9.58938H74.8125V11.4417C74.8125 11.8191 74.968 11.9843 75.3219 11.9843C75.4125 11.984 75.503 11.9785 75.593 11.9679V12.5601C75.4653 12.5829 75.336 12.5951 75.2063 12.5964C74.4156 12.5964 74.1008 12.3183 74.1008 11.6238V9.58935H73.5289V8.99052H74.1008V8.07727H74.8125Z" fill="white"/>
  <path d="M76.5641 7.56787H77.2688V9.55303H77.325C77.4195 9.34557 77.5757 9.1723 77.7723 9.05682C77.9688 8.94135 78.1962 8.88928 78.4234 8.90772C78.5978 8.89823 78.7721 8.92734 78.9339 8.99298C79.0957 9.05861 79.2411 9.15915 79.3596 9.28742C79.4781 9.41569 79.5668 9.56853 79.6194 9.73504C79.6721 9.90154 79.6873 10.0776 79.664 10.2507V12.5765H78.9524V10.4261C78.9524 9.85068 78.6844 9.55927 78.1821 9.55927C78.0599 9.54925 77.937 9.56605 77.822 9.60849C77.7069 9.65093 77.6026 9.718 77.5162 9.80499C77.4298 9.89198 77.3635 9.99679 77.3218 10.1121C77.2801 10.2274 77.2642 10.3504 77.2751 10.4726V12.5765H76.5641L76.5641 7.56787Z" fill="white"/>
  <path d="M83.8091 11.6038C83.7126 11.933 83.5033 12.2178 83.2179 12.4084C82.9326 12.5989 82.5893 12.683 82.2482 12.646C82.0109 12.6523 81.775 12.6068 81.557 12.5128C81.339 12.4188 81.1441 12.2784 80.9858 12.1015C80.8274 11.9246 80.7095 11.7154 80.6402 11.4883C80.5708 11.2612 80.5517 11.0218 80.5841 10.7866C80.5525 10.5507 80.572 10.3108 80.6412 10.083C80.7104 9.8553 80.8277 9.64509 80.9852 9.46663C81.1427 9.28817 81.3367 9.14563 81.554 9.04867C81.7714 8.9517 82.0071 8.90257 82.2451 8.9046C83.2474 8.9046 83.8521 9.5894 83.8521 10.7206V10.9687H81.3084V11.0085C81.2972 11.1407 81.3138 11.2738 81.3571 11.3992C81.4004 11.5246 81.4695 11.6395 81.5598 11.7367C81.6501 11.8339 81.7598 11.9111 81.8817 11.9634C82.0036 12.0157 82.1351 12.042 82.2677 12.0405C82.4378 12.0609 82.6101 12.0303 82.7627 11.9525C82.9153 11.8748 83.0413 11.7534 83.1248 11.6038L83.8091 11.6038ZM81.3083 10.4429H83.1279C83.1368 10.322 83.1204 10.2005 83.0796 10.0864C83.0389 9.97219 82.9747 9.86781 82.8912 9.77992C82.8077 9.69203 82.7067 9.62259 82.5947 9.57605C82.4828 9.52951 82.3624 9.5069 82.2412 9.50968C82.1182 9.50814 81.9962 9.53122 81.8823 9.57758C81.7684 9.62393 81.6649 9.69262 81.578 9.77959C81.4911 9.86656 81.4224 9.97006 81.3761 10.084C81.3298 10.1979 81.3068 10.3199 81.3084 10.4429H81.3083Z" fill="white"/>
  </g>
  <defs>
  <clipPath id="clip0_2007_5932">
  <rect width="96" height="32" fill="white" transform="translate(0 0.818237)"/>
  </clipPath>
  </defs>
  </svg>
  