<svg width="20" height="26" viewBox="0 0 20 26" fill="none" xmlns="http://www.w3.org/2000/svg">
  <path d="M10.6247 5.39524C10.5435 5.39612 10.463 5.381 10.3876 5.35073C10.3123 5.32047 10.2436 5.27566 10.1856 5.21886C10.1275 5.16206 10.0812 5.09439 10.0494 5.0197C10.0175 4.94502 10.0006 4.86478 9.99976 4.78358C9.99976 2.41694 11.9597 0.500301 14.373 0.500301C14.4543 0.4992 14.535 0.514172 14.6104 0.544356C14.6859 0.574541 14.7546 0.619342 14.8127 0.676184C14.8708 0.733026 14.9171 0.800788 14.9489 0.875574C14.9807 0.95036 14.9974 1.03069 14.998 1.11196C14.998 3.4786 13.0397 5.39524 10.6247 5.39524Z" fill="#7B8085"/>
  <path d="M10.6249 5.39524C10.5437 5.39612 10.4631 5.381 10.3877 5.35073C10.3124 5.32047 10.2437 5.27566 10.1857 5.21886C10.1276 5.16206 10.0814 5.09439 10.0495 5.0197C10.0176 4.94502 10.0007 4.86478 9.99987 4.78358C9.99987 2.41694 11.9598 0.500301 14.3732 0.500301C14.4544 0.4992 14.5351 0.514172 14.6105 0.544356C14.686 0.574541 14.7547 0.619342 14.8128 0.676184C14.8709 0.733026 14.9172 0.800788 14.949 0.875574C14.9808 0.95036 14.9975 1.03069 14.9981 1.11196C14.9981 3.4786 13.0398 5.39524 10.6249 5.39524ZM19.7498 18.2801C19.9914 18.4567 20.0697 18.7801 19.9331 19.0434C17.7331 23.3533 15.9781 25.5 14.3748 25.5C13.6282 25.5 12.8948 25.2633 12.1798 24.8033C11.6667 24.4739 11.0724 24.2926 10.4627 24.2797C9.853 24.2668 9.25159 24.4226 8.72489 24.73C7.85823 25.2383 7.03325 25.5 6.24992 25.5C3.89162 25.5 0 18.3884 0 14.4868C0 10.3202 2.23164 7.14355 5.62493 7.14355C7.22158 7.14355 8.59989 7.37355 9.75821 7.84188C10.2482 8.03854 10.8032 8.02521 11.2815 7.80021C12.2215 7.35688 13.4615 7.14355 14.9981 7.14355C16.8765 7.14355 18.5148 8.06021 19.8748 9.83518C19.9239 9.89919 19.9598 9.97242 19.9802 10.0505C20.0005 10.1286 20.005 10.2101 19.9934 10.2899C19.9817 10.3698 19.9542 10.4466 19.9123 10.5156C19.8705 10.5846 19.8152 10.6446 19.7498 10.6918C18.2314 11.8085 17.4998 13.0601 17.4998 14.4868C17.4998 15.9118 18.2314 17.1651 19.7498 18.2801Z" fill="#7B8085"/>
  <path d="M19.7498 18.2801C19.9914 18.4567 20.0697 18.7801 19.9331 19.0434C17.7331 23.3534 15.9781 25.5 14.3748 25.5C13.6282 25.5 12.8948 25.2633 12.1798 24.8033C11.6667 24.4739 11.0724 24.2926 10.4627 24.2797C9.853 24.2668 9.25159 24.4226 8.72489 24.73C7.85823 25.2383 7.03325 25.5 6.24992 25.5C3.89162 25.5 0 18.3884 0 14.4868C0 10.3202 2.23164 7.14355 5.62493 7.14355C7.22158 7.14355 8.59989 7.37355 9.75821 7.84188C10.2482 8.03854 10.8032 8.02521 11.2815 7.80021C12.2215 7.35689 13.4615 7.14355 14.9981 7.14355C16.8765 7.14355 18.5148 8.06021 19.8748 9.83519C19.9239 9.8992 19.9598 9.97243 19.9802 10.0505C20.0005 10.1287 20.005 10.2101 19.9934 10.2899C19.9817 10.3698 19.9542 10.4466 19.9123 10.5156C19.8705 10.5846 19.8152 10.6446 19.7498 10.6918C18.2314 11.8085 17.4998 13.0601 17.4998 14.4868C17.4998 15.9118 18.2314 17.1651 19.7498 18.2801Z" fill="#7B8085"/>
</svg>
  