<svg width="24" height="24" viewBox="0 0 24 24" fill="none" xmlns="http://www.w3.org/2000/svg">
  <path d="M12.2439 17C11.9731 17 11.7335 16.9062 11.5251 16.7188L5.52515 10.7188C5.33765 10.5104 5.2439 10.2708 5.2439 10C5.2439 9.72917 5.33765 9.48958 5.52515 9.28125C5.73348 9.09375 5.97307 9 6.2439 9C6.51473 9 6.75432 9.09375 6.96265 9.28125L12.2439 14.5938L17.5251 9.28125C17.7335 9.09375 17.9731 9 18.2439 9C18.5147 9 18.7543 9.09375 18.9627 9.28125C19.1501 9.48958 19.2439 9.72917 19.2439 10C19.2439 10.2708 19.1501 10.5104 18.9627 10.7188L12.9627 16.7188C12.7543 16.9062 12.5147 17 12.2439 17Z" fill="#75777B"/>
  </svg>
  