<svg width="456" height="337" viewBox="0 0 456 337" fill="none" xmlns="http://www.w3.org/2000/svg">
  <path d="M127.158 30.8624C123.255 30.8624 120.079 27.6593 120.079 23.7225C120.079 19.7856 123.255 16.5825 127.158 16.5825C131.061 16.5825 134.236 19.7856 134.236 23.7225C134.236 27.6593 131.061 30.8624 127.158 30.8624ZM127.158 19.4046C124.794 19.4046 122.877 21.3378 122.877 23.7225C122.877 26.1071 124.794 28.0403 127.158 28.0403C129.522 28.0403 131.438 26.1071 131.438 23.7225C131.438 21.3378 129.522 19.4046 127.158 19.4046Z" fill="#CCE8FF"/>
  <path d="M355.874 331.191C351.971 331.191 348.796 327.988 348.796 324.052C348.796 320.115 351.971 316.912 355.874 316.912C359.777 316.912 362.953 320.115 362.953 324.052C362.953 327.988 359.777 331.191 355.874 331.191ZM355.874 319.734C353.51 319.734 351.594 321.667 351.594 324.052C351.594 326.436 353.51 328.369 355.874 328.369C358.238 328.369 360.155 326.436 360.155 324.052C360.155 321.667 358.224 319.734 355.874 319.734Z" fill="white"/>
  <path d="M368.465 35.0259C364.562 35.0259 361.386 31.8229 361.386 27.886C361.386 23.9492 364.562 20.7461 368.465 20.7461C372.367 20.7461 375.543 23.9492 375.543 27.886C375.543 31.8229 372.367 35.0259 368.465 35.0259ZM368.465 23.5823C366.1 23.5823 364.184 25.5154 364.184 27.9001C364.184 30.2848 366.1 32.218 368.465 32.218C370.829 32.218 372.745 30.2848 372.745 27.9001C372.745 25.5154 370.815 23.5823 368.465 23.5823Z" fill="#CCE8FF"/>
  <path d="M448.922 296.07C445.019 296.07 441.843 292.867 441.843 288.93C441.843 284.993 445.019 281.79 448.922 281.79C452.825 281.79 456 284.993 456 288.93C456 292.867 452.825 296.07 448.922 296.07ZM448.922 284.627C446.558 284.627 444.641 286.56 444.641 288.944C444.641 291.329 446.558 293.262 448.922 293.262C451.286 293.262 453.202 291.329 453.202 288.944C453.202 286.56 451.272 284.627 448.922 284.627Z" fill="#CCE8FF"/>
  <path d="M7.07834 171.263C3.17546 171.263 0 168.059 0 164.123C0 160.186 3.17546 156.983 7.07834 156.983C10.9812 156.983 14.1567 160.186 14.1567 164.123C14.1567 168.059 10.9812 171.263 7.07834 171.263ZM7.07834 159.805C4.71423 159.805 2.79776 161.738 2.79776 164.123C2.79776 166.507 4.71423 168.44 7.07834 168.44C9.44245 168.44 11.3589 166.507 11.3589 164.123C11.3589 161.738 9.44245 159.805 7.07834 159.805Z" fill="#80C6FF"/>
  <path d="M235.739 5.40733H232.773V2.4159C232.773 1.24472 231.836 0.299316 230.675 0.299316C229.514 0.299316 228.576 1.24472 228.576 2.4159V5.40733H225.611C224.45 5.40733 223.513 6.35274 223.513 7.52391C223.513 8.69509 224.45 9.64049 225.611 9.64049H228.576V12.6319C228.576 13.8031 229.514 14.7485 230.675 14.7485C231.836 14.7485 232.773 13.8031 232.773 12.6319V9.64049H235.739C236.9 9.64049 237.837 8.69509 237.837 7.52391C237.837 6.35274 236.9 5.40733 235.739 5.40733Z" fill="#80C6FF"/>
  <path d="M17.5134 263.46H14.5478V260.469C14.5478 259.298 13.6106 258.352 12.4495 258.352C11.2884 258.352 10.3512 259.298 10.3512 260.469V263.46H7.38555C6.22448 263.46 5.28723 264.406 5.28723 265.577C5.28723 266.748 6.22448 267.694 7.38555 267.694H10.3512V270.685C10.3512 271.856 11.2884 272.802 12.4495 272.802C13.6106 272.802 14.5478 271.856 14.5478 270.685V267.694H17.5134C18.6745 267.694 19.6118 266.748 19.6118 265.577C19.6118 264.406 18.6745 263.46 17.5134 263.46Z" fill="#80C6FF"/>
  <path d="M87.4574 326.958H84.4918V323.967C84.4918 322.796 83.5545 321.85 82.3935 321.85C81.2324 321.85 80.2951 322.796 80.2951 323.967V326.958H77.3295C76.1685 326.958 75.2312 327.904 75.2312 329.075C75.2312 330.246 76.1685 331.191 77.3295 331.191H80.2951V334.183C80.2951 335.354 81.2324 336.299 82.3935 336.299C83.5545 336.299 84.4918 335.354 84.4918 334.183V331.191H87.4574C88.6185 331.191 89.5557 330.246 89.5557 329.075C89.5557 327.904 88.6185 326.958 87.4574 326.958Z" fill="white"/>
  <path d="M453.286 187.97H450.32V184.978C450.32 183.807 449.383 182.862 448.222 182.862C447.061 182.862 446.124 183.807 446.124 184.978V187.97H443.158C441.997 187.97 441.06 188.915 441.06 190.086C441.06 191.257 441.997 192.203 443.158 192.203H446.124V195.194C446.124 196.365 447.061 197.311 448.222 197.311C449.383 197.311 450.32 196.365 450.32 195.194V192.203H453.286C454.447 192.203 455.384 191.257 455.384 190.086C455.384 188.915 454.447 187.97 453.286 187.97Z" fill="#CCE8FF"/>
  <g clip-path="url(#clip0_2731_6151)">
  <path d="M105.123 128.433L230.661 63.9685L162.278 73.0256L159.67 73.3704L58.768 125.178L34.1323 137.829L105.123 128.433Z" fill="#E5F3FF"/>
  <path d="M105.123 128.433L34.1323 137.829V140.895L78.0352 135.071L100.246 132.13L105.123 128.433Z" fill="#CCE8FF"/>
  <path d="M234.21 64.4407L230.709 63.9779L356.181 128.406H356.195L356.206 128.418L356.244 128.437L427.238 137.857L301.704 73.386L293.727 72.3268L280.773 70.6123L234.21 64.4407Z" fill="#E5F3FF"/>
  <path d="M356.167 128.418L356.181 128.406L230.709 63.9779V63.9903L356.167 128.418Z" fill="#E5F3FF"/>
  <path d="M159.67 249.9L105.123 221.884V257.357L230.647 321.832V195.952L159.67 249.9Z" fill="#B3DDFF"/>
  <path d="M356.168 128.418L230.709 63.9934L230.661 63.9685L105.123 128.434L230.647 192.886L356.168 128.418ZM230.204 189.389L190.12 168.818L111.488 128.44L230.204 67.469L348.921 128.44L270.292 168.818L230.204 189.389Z" fill="#F5F6F7"/>
  <path d="M230.204 67.4628L111.488 128.434L190.117 168.815L230.204 148.231V67.4628Z" fill="#9DD3FF"/>
  <path d="M230.204 148.231L190.117 168.815L230.204 189.389L270.292 168.815L230.204 148.231Z" fill="#B3DDFF"/>
  <path d="M301.652 249.881L230.661 195.933V195.952V321.816L356.195 257.357V222.03V221.868L301.652 249.881Z" fill="#9DD3FF"/>
  <path d="M230.204 148.231L270.292 168.815L348.917 128.434L230.204 67.4628V148.231Z" fill="#5EAEED"/>
  <path d="M230.661 192.886L105.123 128.433L100.246 132.13L88.9763 140.693L34.1323 182.372L159.67 246.834L230.661 192.886Z" fill="#E5F3FF"/>
  <path d="M159.67 246.834V249.9L230.661 195.952V195.933V192.886L159.67 246.834Z" fill="#5EAEED"/>
  <path d="M159.67 246.834L34.1323 182.372V185.432L105.123 221.881L159.67 249.9V246.834Z" fill="#CCE8FF"/>
  <path d="M356.206 128.418L356.195 128.406H356.181L356.168 128.418L230.661 192.871L301.652 246.822L427.183 182.354L361.107 132.136L356.244 128.452L356.206 128.418Z" fill="#E5F3FF"/>
  <path d="M230.661 192.871V192.886V195.933L301.652 249.881V246.822L230.661 192.871Z" fill="#5EAEED"/>
  <path d="M301.652 246.822V249.881L356.195 221.868L383.332 207.935L388.012 205.531L427.183 185.419V182.354L301.652 246.822Z" fill="#89CAFF"/>
  </g>
  <defs>
  <clipPath id="clip0_2731_6151">
  <rect width="393.106" height="257.851" fill="white" transform="translate(34.1323 63.9685)"/>
  </clipPath>
  </defs>
  </svg>
  