<svg width="457" height="336" viewBox="0 0 457 336" fill="none" xmlns="http://www.w3.org/2000/svg">
  <path d="M238.827 307C359.044 307 456.5 292.002 456.5 273.5C456.5 254.998 359.044 240 238.827 240C118.609 240 21.1533 254.998 21.1533 273.5C21.1533 292.002 118.609 307 238.827 307Z" fill="#E6F4FF"/>
  <path d="M382.987 50.2229L365.581 50.5936L356.772 50.7392C353.822 50.8054 350.873 50.7392 347.923 50.8054H347.328V50.2097L347.301 35.3689V34.7069H347.976L365.488 34.7863C371.321 34.7863 377.154 34.932 383 34.9982H383.357V35.3689C383.357 37.8842 383.238 40.3732 383.186 42.8488L382.987 50.2229ZM382.987 50.2229L382.789 42.7297C382.789 40.2672 382.643 37.8313 382.617 35.4086L382.987 35.766C377.141 35.8322 371.308 35.9778 365.475 35.9778L347.963 36.0705L348.611 35.4086L348.545 50.2229L347.963 49.6271C350.846 49.6271 353.716 49.6271 356.613 49.7066L365.316 49.8522L382.987 50.2229Z" fill="#D7EDFF"/>
  <path d="M55.7217 203.488L38.3682 203.858L29.5592 204.004C26.6096 204.07 23.66 204.004 20.6972 204.07H20.1153V203.475L20.0359 188.634V187.972H20.6972L38.2095 188.051C44.0557 188.051 49.8887 188.197 55.7217 188.263H56.0921V188.634C56.0921 191.149 55.973 193.638 55.9201 196.114L55.7217 203.488ZM55.7217 203.488L55.5366 195.995C55.5366 193.532 55.3911 191.096 55.3646 188.673L55.7217 189.031C49.8887 189.097 44.0557 189.243 38.2095 189.243L20.6972 189.335L21.3586 188.673L21.2924 203.488L20.6972 202.892C23.5939 202.892 26.4641 202.892 29.3608 202.971L38.064 203.117L55.7217 203.488Z" fill="#D7EDFF"/>
  <path d="M36.1856 222.17L18.8321 222.541L10.023 222.686C7.07347 222.686 4.11067 222.686 1.16109 222.686H0.579118V222.091L0.499756 207.276V206.614H1.16109L18.6734 206.694C24.5196 206.694 30.3526 206.839 36.1856 206.906H36.556V207.263C36.556 209.778 36.4369 212.267 36.3708 214.743L36.1856 222.17ZM36.1856 222.17L36.0004 214.677C36.0004 212.214 35.8549 209.778 35.8285 207.356L36.1856 207.713C30.3526 207.713 24.5196 207.925 18.6734 207.925L1.16109 208.018L1.82243 207.356V222.17L1.22723 221.574C4.11067 221.574 6.9941 221.574 9.89077 221.654L18.594 221.799L36.1856 222.17Z" fill="#D7EDFF"/>
  <path d="M402.523 68.9056L385.156 69.2762L376.347 69.4219C373.411 69.4219 370.448 69.4219 367.499 69.4219H366.903V68.8261V54.0913V53.4293H367.565L385.077 53.5088C390.91 53.5088 396.743 53.6543 402.589 53.7205H402.946V54.078C402.946 56.5934 402.827 59.0823 402.774 61.558L402.523 68.9056ZM402.523 68.9056L402.338 61.4124C402.272 58.9499 402.179 56.514 402.153 54.0913L402.523 54.4487C396.677 54.4487 390.844 54.6605 385.011 54.6605L367.499 54.7532L368.16 54.0913L368.081 68.9056L367.499 68.3098C370.382 68.3098 373.265 68.3098 376.149 68.3893L384.852 68.5349L402.523 68.9056Z" fill="#D7EDFF"/>
  <path d="M222.063 15.5632L204.696 15.9339L195.887 16.0795C192.938 16.1457 189.988 16.0795 187.039 16.1589H186.443V15.5632L186.377 0.748859V0.0869141H187.052L204.564 0.179586C210.397 0.179586 216.23 0.325209 222.076 0.391403H222.433V0.748859C222.433 3.26425 222.314 5.7664 222.261 8.24207L222.063 15.5632ZM222.063 15.5632L221.865 8.08321C221.865 5.62078 221.719 3.17158 221.693 0.748859L222.063 1.11955C216.217 1.11955 210.384 1.31813 204.551 1.33136L187.039 1.4108L187.7 0.748859L187.621 15.5632L187.039 14.9807C189.922 14.9807 192.792 14.9807 195.689 14.9807L204.392 15.1263L222.063 15.5632Z" fill="#D7EDFF"/>
  <path d="M202.514 34.2439L185.16 34.6145L176.351 34.7602C173.402 34.7602 170.452 34.7602 167.489 34.8396H166.907V34.2439L166.828 19.4295V18.7676H167.489L185.002 18.8603C190.848 18.8603 196.681 19.0059 202.514 19.0721H202.884V19.4295C202.884 21.9449 202.765 24.4471 202.712 26.9227L202.514 34.2439ZM202.514 34.2439L202.329 26.7639C202.329 24.3014 202.183 21.8522 202.157 19.4295L202.514 19.8002C196.681 19.8664 190.848 19.9988 185.002 20.012L167.489 20.0915L168.151 19.4295V34.2439L167.556 33.6613C170.452 33.6613 173.322 33.6613 176.219 33.7275L184.922 33.8732L202.514 34.2439Z" fill="#D7EDFF"/>
  <path d="M241.599 34.2439L224.232 34.6145L215.423 34.7602C212.487 34.7602 209.524 34.7602 206.575 34.8396H205.979V34.2439V19.4295V18.7676H206.641L224.153 18.8603C229.986 18.8603 235.819 19.0059 241.665 19.0721H242.022V19.4295C242.022 21.9449 241.917 24.4471 241.851 26.9227L241.599 34.2439ZM241.599 34.2439L241.414 26.7639C241.348 24.3014 241.255 21.8522 241.242 19.4295L241.599 19.8002C235.753 19.8664 229.92 19.9988 224.087 20.012L206.575 20.0915L207.236 19.4295L207.157 34.2439L206.575 33.6613C209.458 33.6613 212.342 33.6613 215.225 33.7275L223.928 33.8732L241.599 34.2439Z" fill="#D7EDFF"/>
  <path d="M56.4602 85.2229L39.0935 85.5936L30.2844 85.7392C27.3481 85.7392 24.3853 85.7392 21.4357 85.7392H20.8537V85.1435L20.7876 70.3291V69.7069H21.4489L38.9612 69.7863C44.7942 69.7863 50.6404 69.932 56.4734 69.9982H56.8306V70.3556C56.8306 72.871 56.7248 75.3599 56.6586 77.8356L56.4602 85.2229ZM56.4602 85.2229L56.2883 77.7297C56.2883 75.2672 56.1296 72.8313 56.1163 70.4086L56.4734 70.766C50.6404 70.766 44.7942 70.9779 38.9612 70.9779L21.4357 71.0308L22.0971 70.3689L22.0177 85.1832L21.4357 84.5874C24.3192 84.5874 27.2026 84.5874 30.086 84.6669L38.7892 84.8125L56.4602 85.2229Z" fill="#D7EDFF"/>
  <path d="M189.933 143.762L186.901 160.528L409.671 200.889L412.703 184.123L189.933 143.762Z" fill="#B7DFFF"/>
  <path d="M203.304 146.207L187.524 157.155L189.945 143.784L203.304 146.207Z" fill="#8FCDFF"/>
  <path d="M228.66 150.8L208.872 164.515L195.328 162.066L215.115 148.337L228.66 150.8Z" fill="#8FCDFF"/>
  <path d="M253.989 155.383L234.215 169.111L220.671 166.662L240.458 152.933L253.989 155.383Z" fill="#8FCDFF"/>
  <path d="M279.345 159.975L259.558 173.704L246.027 171.255L265.801 157.526L279.345 159.975Z" fill="#8FCDFF"/>
  <path d="M304.674 164.569L284.9 178.298L271.356 175.849L291.143 162.12L304.674 164.569Z" fill="#8FCDFF"/>
  <path d="M330.03 169.162L310.243 182.891L296.712 180.442L316.486 166.713L330.03 169.162Z" fill="#8FCDFF"/>
  <path d="M355.359 173.756L335.585 187.485L322.041 185.023L341.828 171.294L355.359 173.756Z" fill="#8FCDFF"/>
  <path d="M380.702 178.35L360.927 192.079L347.396 189.617L367.171 175.888L380.702 178.35Z" fill="#8FCDFF"/>
  <path d="M406.057 182.944L386.27 196.673L372.726 194.211L392.513 180.482L406.057 182.944Z" fill="#8FCDFF"/>
  <path d="M411.785 189.287L409.681 200.911L398.068 198.806L411.785 189.287Z" fill="#8FCDFF"/>
  <path d="M185.109 176.69L186.972 193.614L415.45 168.538L413.587 151.615L185.109 176.69Z" fill="#C7E6FF"/>
  <g clip-path="url(#clip0_2731_6241)">
  <path d="M201.197 187.626L202.172 180.944L203.355 187.526L205.251 187.318L203.742 178.923L200.781 179.249L199.956 185.094L197.877 179.568L194.915 179.894L195.268 188.416L197.165 188.208L196.888 181.525L199.293 187.836L201.197 187.626ZM225.978 179.718L227.12 179.592L227.439 178.852L226.972 178.21L225.826 178.337L225.978 179.718ZM222.709 180.078L223.709 179.968L224.011 182.709C224.17 184.149 224.666 185.18 226.323 184.998C226.921 184.932 227.402 184.732 227.671 184.594L227.502 183.056C226.531 183.344 226.054 183.455 225.915 182.19L225.293 176.547L223.356 176.76L223.558 178.59L222.709 178.683L222.709 180.078ZM213.882 183.564C214.189 185.145 216.748 184.581 217.83 184.121L218.259 185.469C215.744 186.717 212.18 186.476 211.82 183.207C211.341 178.851 217.779 177.663 218.286 182.265C218.324 182.612 218.317 182.925 218.306 183.074L213.881 183.561L213.882 183.564ZM216.257 181.895C216.059 180.094 213.524 180.347 213.742 182.171L216.257 181.895ZM220.322 180.718C220.231 179.888 221.87 179.98 222.377 180.115L222.374 178.72C220.692 178.416 218.203 179.054 218.433 181.113C218.622 183.147 221.709 182.525 221.815 183.492C221.927 184.51 219.429 184.257 218.864 184.007L218.739 185.419C220.636 185.989 224.062 185.437 223.717 183.141C223.439 180.904 220.424 181.636 220.322 180.718Z" fill="#5CB6FF"/>
  <path d="M207.056 184.316C207.364 185.897 209.923 185.333 211.004 184.872L211.433 186.22C208.919 187.469 205.355 187.227 204.995 183.958C204.515 179.602 210.954 178.414 211.46 183.017C211.499 183.364 211.492 183.676 211.481 183.825L207.056 184.312L207.056 184.316ZM209.432 182.646C209.234 180.846 206.699 181.099 206.917 182.923L209.432 182.646Z" fill="#5CB6FF"/>
  <path d="M227.802 176.271L229.518 178.623L228.356 181.308L226.916 181.466L228.078 178.781L226.362 176.429L227.802 176.271Z" fill="#5CB6FF"/>
  </g>
  <g clip-path="url(#clip1_2731_6241)">
  <path d="M261.487 180.99L262.462 174.308L263.645 180.891L265.542 180.682L264.033 172.287L261.071 172.613L260.247 178.458L258.167 172.932L255.206 173.258L255.559 181.781L257.455 181.572L257.178 174.889L259.584 181.2L261.487 180.99ZM286.268 173.083L287.411 172.957L287.73 172.216L287.262 171.575L286.116 171.701L286.268 173.083ZM282.999 173.442L284 173.332L284.302 176.073C284.46 177.513 284.957 178.545 286.613 178.362C287.212 178.297 287.693 178.096 287.962 177.958L287.792 176.421C286.821 176.708 286.344 176.82 286.205 175.555L285.584 169.911L283.647 170.125L283.848 171.954L283 172.047L282.999 173.442ZM274.172 176.929C274.48 178.51 277.038 177.946 278.12 177.485L278.549 178.833C276.035 180.082 272.47 179.84 272.111 176.571C271.631 172.215 278.07 171.027 278.576 175.63C278.615 175.977 278.608 176.289 278.597 176.438L274.172 176.925L274.172 176.929ZM276.548 175.259C276.349 173.459 273.815 173.711 274.032 175.536L276.548 175.259ZM280.613 174.083C280.522 173.252 282.16 173.344 282.668 173.479L282.665 172.084C280.982 171.78 278.493 172.419 278.723 174.478C278.913 176.512 281.999 175.89 282.106 176.856C282.218 177.875 279.719 177.621 279.155 177.371L279.03 178.784C280.926 179.353 284.352 178.802 284.007 176.506C283.73 174.268 280.714 175 280.613 174.083Z" fill="#5CB6FF"/>
  <path d="M267.347 177.68C267.654 179.261 270.213 178.697 271.295 178.237L271.724 179.584C269.21 180.833 265.645 180.592 265.285 177.322C264.806 172.967 271.244 171.779 271.751 176.381C271.789 176.728 271.783 177.041 271.772 177.189L267.346 177.677L267.347 177.68ZM269.722 176.01C269.524 174.21 266.989 174.463 267.207 176.287L269.722 176.01Z" fill="#5CB6FF"/>
  <path d="M288.093 169.635L289.809 171.987L288.647 174.672L287.207 174.831L288.369 172.146L286.652 169.794L288.093 169.635Z" fill="#5CB6FF"/>
  </g>
  <g clip-path="url(#clip2_2731_6241)">
  <path d="M321.778 174.354L322.753 167.672L323.936 174.255L325.833 174.046L324.324 165.651L321.362 165.977L320.538 171.822L318.458 166.297L315.497 166.623L315.85 175.145L317.746 174.936L317.469 168.254L319.875 174.564L321.778 174.354ZM346.559 166.447L347.702 166.321L348.021 165.58L347.553 164.939L346.407 165.065L346.559 166.447ZM343.29 166.807L344.291 166.696L344.593 169.437C344.751 170.877 345.248 171.909 346.904 171.727C347.503 171.661 347.984 171.46 348.253 171.322L348.083 169.785C347.112 170.072 346.635 170.184 346.496 168.919L345.875 163.275L343.938 163.489L344.139 165.318L343.291 165.411L343.29 166.807ZM334.463 170.293C334.771 171.874 337.329 171.31 338.411 170.849L338.84 172.197C336.326 173.446 332.761 173.205 332.402 169.935C331.922 165.579 338.361 164.391 338.867 168.994C338.906 169.341 338.899 169.653 338.888 169.802L334.463 170.289L334.463 170.293ZM336.839 168.623C336.64 166.823 334.106 167.076 334.323 168.9L336.839 168.623ZM340.904 167.447C340.813 166.616 342.451 166.708 342.959 166.843L342.956 165.448C341.273 165.144 338.784 165.783 339.014 167.842C339.204 169.876 342.29 169.254 342.397 170.22C342.509 171.239 340.01 170.985 339.446 170.736L339.321 172.148C341.217 172.717 344.643 172.166 344.298 169.87C344.021 167.632 341.005 168.365 340.904 167.447Z" fill="#5CB6FF"/>
  <path d="M327.638 171.044C327.945 172.625 330.504 172.061 331.586 171.601L332.015 172.949C329.501 174.197 325.936 173.956 325.576 170.687C325.097 166.331 331.535 165.143 332.042 169.745C332.08 170.092 332.074 170.405 332.063 170.554L327.637 171.041L327.638 171.044ZM330.013 169.374C329.815 167.574 327.28 167.827 327.498 169.651L330.013 169.374Z" fill="#5CB6FF"/>
  <path d="M348.384 162.999L350.1 165.351L348.938 168.036L347.498 168.195L348.66 165.51L346.943 163.158L348.384 162.999Z" fill="#5CB6FF"/>
  </g>
  <g clip-path="url(#clip3_2731_6241)">
  <path d="M376.78 168.3L377.755 161.617L378.938 168.2L380.835 167.991L379.326 159.596L376.364 159.922L375.54 165.767L373.46 160.242L370.499 160.568L370.852 169.09L372.748 168.881L372.471 162.199L374.877 168.509L376.78 168.3ZM401.561 160.392L402.704 160.266L403.023 159.525L402.555 158.884L401.409 159.01L401.561 160.392ZM398.292 160.752L399.293 160.642L399.595 163.382C399.753 164.822 400.25 165.854 401.906 165.672C402.505 165.606 402.986 165.405 403.254 165.267L403.085 163.73C402.114 164.017 401.637 164.129 401.498 162.864L400.877 157.221L398.94 157.434L399.141 159.263L398.293 159.357L398.292 160.752ZM389.465 164.238C389.773 165.819 392.331 165.255 393.413 164.795L393.842 166.142C391.328 167.391 387.763 167.15 387.404 163.88C386.924 159.525 393.363 158.337 393.869 162.939C393.908 163.286 393.901 163.599 393.89 163.747L389.465 164.235L389.465 164.238ZM391.841 162.568C391.642 160.768 389.107 161.021 389.325 162.845L391.841 162.568ZM395.906 161.392C395.815 160.562 397.453 160.654 397.961 160.788L397.958 159.393C396.275 159.089 393.786 159.728 394.016 161.787C394.206 163.821 397.292 163.199 397.399 164.166C397.511 165.184 395.012 164.93 394.448 164.681L394.323 166.093C396.219 166.662 399.645 166.111 399.3 163.815C399.023 161.577 396.007 162.31 395.906 161.392Z" fill="#5CB6FF"/>
  <path d="M382.64 164.989C382.947 166.57 385.506 166.006 386.588 165.546L387.017 166.894C384.502 168.142 380.938 167.901 380.578 164.632C380.099 160.276 386.537 159.088 387.044 163.69C387.082 164.037 387.076 164.35 387.065 164.499L382.639 164.986L382.64 164.989ZM385.015 163.319C384.817 161.519 382.282 161.772 382.5 163.596L385.015 163.319Z" fill="#5CB6FF"/>
  <path d="M403.385 156.945L405.102 159.296L403.94 161.981L402.5 162.14L403.662 159.455L401.945 157.103L403.385 156.945Z" fill="#5CB6FF"/>
  </g>
  <path d="M190.534 103.712H182.276V267.83H190.534V103.712Z" fill="#CCE8FF"/>
  <path d="M207.842 270.567C209.055 270.765 208.91 272.554 207.681 272.554H166.31C165.08 272.554 164.935 270.765 166.149 270.567L182.844 267.844C182.897 267.835 182.951 267.831 183.005 267.831H190.986C191.04 267.831 191.093 267.835 191.147 267.844L207.842 270.567Z" fill="#CCE8FF"/>
  <path d="M415.841 103.712H407.584V267.83H415.841V103.712Z" fill="#CCE8FF"/>
  <path d="M431.967 270.567C433.18 270.765 433.036 272.554 431.806 272.554H390.434C389.205 272.554 389.06 270.765 390.273 270.567L406.964 267.844C407.017 267.835 407.071 267.831 407.125 267.831H415.108C415.162 267.831 415.215 267.835 415.269 267.844L431.967 270.567Z" fill="#CCE8FF"/>
  <path d="M172.719 324.943L168.331 314.093C168.122 313.578 167.764 313.138 167.303 312.828C166.842 312.519 166.298 312.354 165.743 312.355H130.117C129.662 312.358 129.214 312.471 128.813 312.685C128.411 312.9 128.068 313.209 127.813 313.585C127.558 313.962 127.399 314.395 127.35 314.847C127.3 315.299 127.362 315.756 127.529 316.178L131.918 327.029C132.128 327.542 132.486 327.982 132.947 328.291C133.408 328.6 133.951 328.766 134.506 328.767H170.116C170.574 328.77 171.026 328.661 171.431 328.449C171.837 328.237 172.183 327.928 172.441 327.55C172.698 327.172 172.858 326.736 172.907 326.281C172.955 325.827 172.891 325.367 172.719 324.943Z" fill="#80C6FF"/>
  <path d="M165.44 320.561L165.046 319.17L164.395 316.949L161.626 307.322L159.144 298.678L157.509 292.996L154.982 284.367L153.62 279.637C153.315 278.806 152.761 278.089 152.035 277.582C151.308 277.075 150.443 276.804 149.556 276.804C148.67 276.804 147.805 277.075 147.078 277.582C146.352 278.089 145.798 278.806 145.493 279.637L144.963 281.466L144.131 284.352L141.649 292.981L140.014 298.663L137.533 307.307L136.488 310.904L133.719 320.546" fill="#B3DDFF"/>
  <path d="M165.44 320.561L165.046 319.17L164.395 316.949L161.626 307.322L159.144 298.678L157.509 292.996L154.982 284.367L153.62 279.637C153.315 278.806 152.761 278.089 152.035 277.582C151.308 277.075 150.443 276.804 149.556 276.804C148.67 276.804 147.805 277.075 147.078 277.582C146.352 278.089 145.798 278.806 145.493 279.637L144.963 281.466L144.131 284.352L141.649 292.981L140.014 298.663L137.533 307.307L136.488 310.904L133.719 320.546" stroke="#B3DDFF" stroke-miterlimit="10"/>
  <path d="M141.71 293.011H157.51L155.028 284.382H144.176L141.71 293.011Z" fill="#5CB6FF" stroke="#5CB6FF" stroke-miterlimit="10"/>
  <path d="M137.578 307.322H161.641L159.144 298.693H140.075L137.578 307.322Z" fill="#5CB6FF" stroke="#5CB6FF" stroke-miterlimit="10"/>
  <path d="M133.053 319.79C134.34 320.395 135.626 320.999 136.943 321.528L138.971 322.223L139.985 322.556C140.333 322.661 140.681 322.737 141.029 322.813L143.117 323.326C143.813 323.478 144.525 323.553 145.236 323.674C146.644 323.931 148.081 323.946 149.519 324.067C152.391 324.108 155.258 323.799 158.055 323.145C160.846 322.514 163.498 321.377 165.879 319.79" fill="#B3DDFF"/>
  <path d="M133.053 319.79C134.34 320.395 135.626 320.999 136.943 321.528L138.971 322.223L139.985 322.556C140.333 322.661 140.681 322.737 141.029 322.813L143.117 323.326C143.813 323.478 144.525 323.553 145.236 323.674C146.644 323.931 148.081 323.946 149.519 324.067C152.391 324.108 155.258 323.799 158.055 323.145C160.846 322.514 163.498 321.377 165.879 319.79" stroke="#5CB6FF" stroke-miterlimit="10"/>
  <path d="M248.317 328.933L253.432 293.857L254.946 294.522L257.306 295.595L267.552 300.129L276.739 304.285L282.792 307.005L291.979 311.221L297.018 313.503C297.893 313.974 298.601 314.702 299.047 315.589C299.493 316.475 299.655 317.477 299.511 318.459C299.368 319.441 298.925 320.355 298.243 321.077C297.562 321.798 296.674 322.294 295.702 322.495L293.583 322.782L290.238 323.235L280.265 324.595L273.681 325.487L263.693 326.847L259.516 327.406L248.317 328.933Z" fill="#B3DDFF" stroke="#B3DDFF" stroke-miterlimit="10"/>
  <path d="M280.219 324.596L282.762 307.096L291.948 311.237L290.208 323.251L280.219 324.596Z" fill="#5CB6FF" stroke="#5CB6FF" stroke-miterlimit="10"/>
  <path d="M263.648 326.847L267.537 300.22L276.723 304.36L273.636 325.487L263.648 326.847Z" fill="#5CB6FF" stroke="#5CB6FF" stroke-miterlimit="10"/>
  <path d="M239.539 325.261L244.7 289.807C244.817 289.024 245.124 288.281 245.595 287.644C246.066 287.006 246.687 286.494 247.402 286.151C248.117 285.808 248.905 285.645 249.698 285.677C250.491 285.708 251.263 285.933 251.949 286.332L260.076 291.062C260.91 291.55 261.58 292.275 262 293.144C262.421 294.013 262.573 294.987 262.437 295.943L257.17 331.759C257.058 332.543 256.754 333.288 256.285 333.928C255.817 334.567 255.198 335.082 254.484 335.427C253.769 335.772 252.981 335.936 252.188 335.905C251.395 335.874 250.622 335.649 249.936 335.25L242.127 330.716C241.203 330.165 240.464 329.352 240.003 328.381C239.542 327.41 239.381 326.324 239.539 325.261Z" fill="#80C6FF"/>
  <path d="M256.126 311.841C255.158 320.364 252.07 326.953 249.225 326.681C246.38 326.409 244.836 319.125 245.805 310.678C246.773 302.23 249.845 295.565 252.706 295.837C255.566 296.109 257.08 303.318 256.126 311.841Z" fill="#005FAD"/>
  <path d="M69.9164 90.0978L66.377 109.669L326.423 156.783L329.963 137.212L69.9164 90.0978Z" fill="#85C8FF"/>
  <path d="M85.5245 92.9518L67.1045 105.732L69.93 90.1237L85.5245 92.9518Z" fill="#5CB6FF"/>
  <path d="M115.123 98.3132L92.0248 114.324L76.2141 111.465L99.3125 95.4387L115.123 98.3132Z" fill="#5CB6FF"/>
  <path d="M144.691 103.664L121.608 119.69L105.797 116.831L128.895 100.805L144.691 103.664Z" fill="#5CB6FF"/>
  <path d="M174.29 109.024L151.191 125.05L135.396 122.191L158.479 106.165L174.29 109.024Z" fill="#5CB6FF"/>
  <path d="M203.857 114.386L180.774 130.412L164.964 127.553L188.062 111.527L203.857 114.386Z" fill="#5CB6FF"/>
  <path d="M233.456 119.748L210.358 135.774L194.562 132.915L217.645 116.889L233.456 119.748Z" fill="#5CB6FF"/>
  <path d="M263.023 125.111L239.94 141.137L224.13 138.263L247.228 122.237L263.023 125.111Z" fill="#5CB6FF"/>
  <path d="M292.607 130.474L269.524 146.5L253.729 143.626L276.812 127.6L292.607 130.474Z" fill="#5CB6FF"/>
  <path d="M322.205 135.837L299.107 151.863L283.296 148.988L306.395 132.962L322.205 135.837Z" fill="#5CB6FF"/>
  <path d="M328.891 143.241L326.436 156.81L312.88 154.353L328.891 143.241Z" fill="#5CB6FF"/>
  <path d="M68.7513 128.398L70.8298 147.281L325.761 119.302L323.682 100.419L68.7513 128.398Z" fill="#B3DDFF"/>
  <g clip-path="url(#clip4_2731_6241)">
  <path d="M86.7017 140.601L87.7898 133.145L89.1099 140.49L91.226 140.257L89.5421 130.89L86.2378 131.254L85.3179 137.776L82.9976 131.61L79.6933 131.974L80.0871 141.483L82.2032 141.25L81.8941 133.794L84.578 140.835L86.7017 140.601ZM114.352 131.778L115.627 131.637L115.983 130.811L115.461 130.095L114.182 130.236L114.352 131.778ZM110.705 132.179L111.821 132.056L112.158 135.114C112.335 136.721 112.889 137.872 114.737 137.669C115.405 137.595 115.941 137.372 116.241 137.218L116.053 135.502C114.969 135.823 114.437 135.947 114.282 134.536L113.589 128.239L111.427 128.477L111.652 130.518L110.705 130.623L110.705 132.179ZM100.855 136.069C101.198 137.833 104.054 137.204 105.261 136.69L105.739 138.194C102.934 139.587 98.9567 139.318 98.5552 135.67C98.0202 130.81 105.204 129.485 105.77 134.62C105.812 135.007 105.805 135.356 105.793 135.522L100.855 136.065L100.855 136.069ZM103.506 134.206C103.285 132.197 100.456 132.479 100.7 134.515L103.506 134.206ZM108.042 132.893C107.94 131.967 109.769 132.07 110.335 132.22L110.332 130.664C108.454 130.325 105.677 131.037 105.934 133.334C106.145 135.604 109.589 134.91 109.707 135.988C109.833 137.125 107.045 136.842 106.415 136.563L106.275 138.139C108.392 138.774 112.214 138.159 111.829 135.597C111.52 133.1 108.155 133.918 108.042 132.893Z" fill="#005FAD"/>
  <path d="M93.2395 136.907C93.5826 138.672 96.4378 138.042 97.6449 137.529L98.1235 139.032C95.3181 140.425 91.3409 140.156 90.9394 136.509C90.4044 131.648 97.5886 130.323 98.1538 135.458C98.1964 135.845 98.189 136.194 98.1768 136.36L93.2391 136.904L93.2395 136.907ZM95.8902 135.044C95.6691 133.036 92.8406 133.318 93.0837 135.353L95.8902 135.044Z" fill="#005FAD"/>
  <path d="M116.387 127.931L118.303 130.555L117.006 133.551L115.399 133.728L116.696 130.732L114.781 128.108L116.387 127.931Z" fill="#005FAD"/>
  </g>
  <g clip-path="url(#clip5_2731_6241)">
  <path d="M153.973 133.196L155.061 125.74L156.381 133.085L158.497 132.852L156.813 123.485L153.509 123.849L152.589 130.371L150.269 124.206L146.964 124.569L147.358 134.078L149.474 133.845L149.165 126.389L151.849 133.43L153.973 133.196ZM181.623 124.373L182.898 124.233L183.254 123.406L182.732 122.691L181.453 122.832L181.623 124.373ZM177.976 124.775L179.092 124.652L179.429 127.71C179.606 129.316 180.16 130.468 182.008 130.264C182.676 130.191 183.212 129.967 183.512 129.813L183.324 128.098C182.24 128.418 181.708 128.543 181.553 127.132L180.86 120.835L178.698 121.073L178.923 123.114L177.976 123.218L177.976 124.775ZM168.126 128.664C168.469 130.429 171.325 129.799 172.532 129.286L173.01 130.79C170.205 132.183 166.228 131.913 165.826 128.266C165.291 123.406 172.475 122.08 173.041 127.215C173.083 127.602 173.076 127.951 173.064 128.117L168.126 128.661L168.126 128.664ZM170.777 126.801C170.556 124.793 167.727 125.075 167.971 127.11L170.777 126.801ZM175.313 125.489C175.211 124.563 177.04 124.665 177.606 124.815L177.603 123.259C175.725 122.92 172.948 123.632 173.205 125.93C173.416 128.199 176.86 127.505 176.978 128.584C177.104 129.72 174.316 129.437 173.686 129.159L173.546 130.734C175.663 131.369 179.485 130.754 179.1 128.193C178.791 125.696 175.426 126.513 175.313 125.489Z" fill="#005FAD"/>
  <path d="M160.511 129.503C160.854 131.267 163.709 130.638 164.916 130.124L165.394 131.628C162.589 133.021 158.612 132.752 158.21 129.104C157.675 124.244 164.86 122.918 165.425 128.053C165.467 128.441 165.46 128.789 165.448 128.956L160.51 129.499L160.511 129.503ZM163.161 127.64C162.94 125.631 160.112 125.913 160.355 127.949L163.161 127.64Z" fill="#005FAD"/>
  <path d="M183.658 120.527L185.574 123.151L184.277 126.147L182.67 126.324L183.967 123.328L182.052 120.704L183.658 120.527Z" fill="#005FAD"/>
  </g>
  <g clip-path="url(#clip6_2731_6241)">
  <path d="M221.244 125.792L222.332 118.336L223.652 125.681L225.768 125.448L224.084 116.081L220.78 116.445L219.86 122.966L217.54 116.801L214.236 117.165L214.629 126.674L216.745 126.441L216.436 118.985L219.12 126.026L221.244 125.792ZM248.894 116.969L250.169 116.828L250.525 116.002L250.003 115.286L248.725 115.427L248.894 116.969ZM245.247 117.37L246.363 117.247L246.7 120.305C246.877 121.912 247.431 123.063 249.279 122.86C249.947 122.786 250.484 122.562 250.784 122.409L250.595 120.693C249.511 121.014 248.979 121.138 248.824 119.727L248.131 113.43L245.969 113.668L246.194 115.709L245.247 115.813L245.247 117.37ZM235.398 121.26C235.741 123.024 238.596 122.395 239.803 121.881L240.282 123.385C237.476 124.778 233.499 124.509 233.097 120.861C232.562 116.001 239.747 114.675 240.312 119.811C240.354 120.198 240.347 120.547 240.335 120.713L235.397 121.256L235.398 121.26ZM238.048 119.397C237.827 117.388 234.999 117.67 235.242 119.706L238.048 119.397ZM242.584 118.084C242.482 117.158 244.311 117.261 244.877 117.411L244.874 115.855C242.996 115.515 240.219 116.228 240.476 118.525C240.687 120.795 244.131 120.101 244.25 121.179C244.375 122.316 241.587 122.033 240.957 121.754L240.818 123.33C242.934 123.965 246.756 123.35 246.371 120.788C246.062 118.291 242.697 119.109 242.584 118.084Z" fill="#005FAD"/>
  <path d="M227.782 122.098C228.125 123.862 230.98 123.233 232.187 122.719L232.666 124.223C229.86 125.616 225.883 125.347 225.482 121.699C224.947 116.839 232.131 115.514 232.696 120.649C232.739 121.036 232.731 121.385 232.719 121.551L227.781 122.095L227.782 122.098ZM230.432 120.235C230.211 118.227 227.383 118.509 227.626 120.544L230.432 120.235Z" fill="#005FAD"/>
  <path d="M250.93 113.122L252.845 115.746L251.548 118.742L249.941 118.919L251.238 115.923L249.323 113.299L250.93 113.122Z" fill="#005FAD"/>
  </g>
  <g clip-path="url(#clip7_2731_6241)">
  <path d="M282.614 119.037L283.702 111.581L285.022 118.926L287.139 118.693L285.455 109.326L282.15 109.689L281.23 116.211L278.91 110.046L275.606 110.41L276 119.919L278.116 119.686L277.807 112.23L280.491 119.271L282.614 119.037ZM310.265 110.213L311.54 110.073L311.895 109.247L311.374 108.531L310.095 108.672L310.265 110.213ZM306.617 110.615L307.734 110.492L308.07 113.55C308.247 115.157 308.801 116.308 310.65 116.105C311.317 116.031 311.854 115.807 312.154 115.653L311.965 113.938C310.882 114.259 310.35 114.383 310.194 112.972L309.501 106.675L307.34 106.913L307.564 108.954L306.618 109.058L306.617 110.615ZM296.768 114.505C297.111 116.269 299.966 115.64 301.173 115.126L301.652 116.63C298.846 118.023 294.869 117.754 294.468 114.106C293.933 109.246 301.117 107.92 301.682 113.055C301.725 113.443 301.717 113.791 301.705 113.958L296.768 114.501L296.768 114.505ZM299.419 112.642C299.197 110.633 296.369 110.915 296.612 112.951L299.419 112.642ZM303.955 111.329C303.853 110.403 305.681 110.506 306.248 110.656L306.244 109.099C304.367 108.76 301.589 109.473 301.846 111.77C302.058 114.04 305.501 113.346 305.62 114.424C305.745 115.56 302.958 115.278 302.328 114.999L302.188 116.575C304.304 117.21 308.127 116.595 307.742 114.033C307.432 111.536 304.067 112.353 303.955 111.329Z" fill="#005FAD"/>
  <path d="M289.152 115.343C289.495 117.107 292.35 116.478 293.557 115.964L294.036 117.468C291.231 118.861 287.253 118.592 286.852 114.944C286.317 110.084 293.501 108.759 294.066 113.894C294.109 114.281 294.102 114.63 294.089 114.796L289.152 115.339L289.152 115.343ZM291.803 113.48C291.582 111.472 288.753 111.754 288.996 113.789L291.803 113.48Z" fill="#005FAD"/>
  <path d="M312.3 106.367L314.215 108.991L312.919 111.987L311.312 112.164L312.608 109.168L310.693 106.544L312.3 106.367Z" fill="#005FAD"/>
  </g>
  <path d="M74.4119 80.3911H66.2998V267.139H74.4119V80.3911Z" fill="#8CC4F2"/>
  <path d="M96.0292 270.564C97.2429 270.762 97.0979 272.551 95.8682 272.551H44.8437C43.614 272.551 43.4691 270.762 44.6828 270.564L65.6094 267.151C65.6626 267.143 65.7165 267.138 65.7704 267.138H74.9416C74.9955 267.138 75.0493 267.143 75.1025 267.151L96.0292 270.564Z" fill="#8CC4F2"/>
  <path d="M329.942 80.3911H320.478V267.139H329.942V80.3911Z" fill="#8CC4F2"/>
  <path d="M350.204 270.564C351.418 270.762 351.273 272.551 350.043 272.551H299.018C297.788 272.551 297.643 270.762 298.857 270.564L319.778 267.151C319.831 267.143 319.885 267.138 319.939 267.138H329.112C329.166 267.138 329.22 267.143 329.273 267.151L350.204 270.564Z" fill="#8CC4F2"/>
  <defs>
  <clipPath id="clip0_2731_6241">
  <rect width="35.1159" height="8.51295" fill="white" transform="translate(194.337 179.955) rotate(-6.28148)"/>
  </clipPath>
  <clipPath id="clip1_2731_6241">
  <rect width="35.1159" height="8.51295" fill="white" transform="translate(254.627 173.319) rotate(-6.28148)"/>
  </clipPath>
  <clipPath id="clip2_2731_6241">
  <rect width="35.1159" height="8.51295" fill="white" transform="translate(314.918 166.683) rotate(-6.28148)"/>
  </clipPath>
  <clipPath id="clip3_2731_6241">
  <rect width="35.1159" height="8.51295" fill="white" transform="translate(369.92 160.628) rotate(-6.28148)"/>
  </clipPath>
  <clipPath id="clip4_2731_6241">
  <rect width="39.1817" height="9.49859" fill="white" transform="translate(79.0479 132.041) rotate(-6.28148)"/>
  </clipPath>
  <clipPath id="clip5_2731_6241">
  <rect width="39.1817" height="9.49859" fill="white" transform="translate(146.319 124.637) rotate(-6.28148)"/>
  </clipPath>
  <clipPath id="clip6_2731_6241">
  <rect width="39.1817" height="9.49859" fill="white" transform="translate(213.59 117.232) rotate(-6.28148)"/>
  </clipPath>
  <clipPath id="clip7_2731_6241">
  <rect width="39.1817" height="9.49859" fill="white" transform="translate(274.96 110.477) rotate(-6.28148)"/>
  </clipPath>
  </defs>
  </svg>
  