<svg width="25" height="24" viewBox="0 0 25 24" fill="none" xmlns="http://www.w3.org/2000/svg">
  <path d="M4.61499 8.66406C4.68531 8.66406 4.72046 8.66406 4.75562 8.69922L11.6814 12.8125V20.6875C11.6814 21.0391 11.4001 21.2852 11.0837 21.2852C11.0134 21.2852 10.908 21.25 10.8025 21.1797L5.45874 17.9453C4.79078 17.5234 4.3689 16.75 4.3689 15.9062V8.94531C4.3689 8.76953 4.47437 8.66406 4.61499 8.66406ZM19.3455 7.39844C19.3455 7.50391 19.2751 7.57422 19.2048 7.64453L12.2439 11.793L5.24781 7.64453C5.17749 7.57422 5.10718 7.46875 5.10718 7.39844C5.10718 7.29297 5.17749 7.1875 5.24781 7.11719L11.0486 3.60156C11.4353 3.39062 11.822 3.25 12.2439 3.25C12.6306 3.25 13.0173 3.39062 13.3689 3.60156L19.1697 7.11719C19.2751 7.1875 19.3455 7.29297 19.3455 7.39844ZM19.8377 8.66406C19.9783 8.66406 20.1189 8.76953 20.1189 8.94531V15.9062C20.1189 16.75 19.6619 17.5234 18.9939 17.9453L13.6501 21.1797C13.5447 21.25 13.4392 21.25 13.3689 21.25C13.0525 21.25 12.8064 21.0039 12.8064 20.6875V12.8125L19.697 8.69922C19.7322 8.66406 19.7673 8.66406 19.8377 8.66406Z" fill="#75777B"/>
  </svg>
  