<svg width="16" height="16" viewBox="0 0 16 16" fill="none" xmlns="http://www.w3.org/2000/svg">
  <path d="M13.7891 4.16406L12.3359 2.71094C12.1953 2.57031 12.0234 2.5 11.8203 2.5H7.97656C7.55469 2.51563 7.20312 2.66406 6.92188 2.94531C6.64062 3.22656 6.49219 3.57812 6.47656 4V10C6.49219 10.4219 6.64844 10.7734 6.94531 11.0547C7.22656 11.3359 7.57812 11.4844 8 11.5H12.5C12.9219 11.4844 13.2734 11.3359 13.5547 11.0547C13.8359 10.7734 13.9844 10.4219 14 10V4.67969C14 4.47656 13.9297 4.30469 13.7891 4.16406ZM12.875 10C12.8594 10.2344 12.7344 10.3594 12.5 10.375H7.97656C7.74219 10.3594 7.61719 10.2344 7.60156 10V4C7.61719 3.78125 7.74219 3.65625 7.97656 3.625H10.9766L11 4.75C11 4.96875 11.0703 5.14844 11.2109 5.28906C11.3516 5.42969 11.5312 5.5 11.75 5.5H12.8516V10H12.875ZM8.375 13C8.35938 13.2344 8.23438 13.3594 8 13.375H3.47656C3.24219 13.3594 3.11719 13.2344 3.10156 13L3.125 7C3.14062 6.76562 3.26562 6.64062 3.5 6.625H5.75V5.5H3.5C3.07812 5.51562 2.72656 5.66406 2.44531 5.94531C2.16406 6.22656 2.01562 6.57812 2 7V13C2.01562 13.4219 2.16406 13.7734 2.44531 14.0547C2.72656 14.3359 3.07812 14.4844 3.5 14.5H8C8.42188 14.4844 8.77344 14.3359 9.05469 14.0547C9.33594 13.7734 9.48438 13.4219 9.5 13V12.25H8.39844L8.375 13Z" fill="#2C363F"/>
  </svg>
  