<svg width="16" height="16" viewBox="0 0 16 16" fill="none" xmlns="http://www.w3.org/2000/svg">
  <circle cx="8" cy="8" r="8" fill="#E82A53"/>
  <path fill-rule="evenodd" clip-rule="evenodd" d="M8.99327 3.88338C8.93551 3.38604 8.51284 3 8 3C7.44772 3 7 3.44772 7 4V9L7.00673 9.11662C7.06449 9.61396 7.48716 10 8 10C8.55228 10 9 9.55228 9 9V4L8.99327 3.88338ZM9.01 12C9.01 11.4477 8.56228 11 8.01 11L7.88338 11.0067C7.38604 11.0645 7 11.4872 7 12C7 12.5523 7.44772 13 8 13L8.12662 12.9933C8.62396 12.9355 9.01 12.5128 9.01 12Z" fill="white"/>
  </svg>
  