<svg width="425" height="312" viewBox="0 0 425 312" fill="none" xmlns="http://www.w3.org/2000/svg">
  <path d="M261.135 245.945H155.509V290.501H261.135V245.945Z" fill="#5EAEED"/>
  <rect x="41.2213" y="48.701" width="335" height="208" rx="10" fill="#9DD3FF"/>
  <path d="M287.548 290.501H129.109V298.759H287.548V290.501Z" fill="#CCE8FF"/>
  <path d="M360.221 64.9335H57.2213V244.933H360.221V64.9335Z" fill="#5EAEED"/>
  <path d="M360.221 84.9335H57.2213V244.933H360.221V84.9335Z" fill="white"/>
  <path d="M352.222 235.568V238.933H348.723" stroke="#CCE8FF" stroke-miterlimit="10"/>
  <path d="M341.893 238.933H72.1346" stroke="#CCE8FF" stroke-miterlimit="10" stroke-dasharray="4.88 4.88"/>
  <path d="M68.7206 238.933H65.2213V235.568" stroke="#CCE8FF" stroke-miterlimit="10"/>
  <path d="M65.2213 229.027V101.569" stroke="#CCE8FF" stroke-miterlimit="10" stroke-dasharray="4.86 4.86"/>
  <path d="M65.2214 98.2983V94.9335H68.7208" stroke="#CCE8FF" stroke-miterlimit="10"/>
  <path d="M75.5492 94.9335H345.308" stroke="#CCE8FF" stroke-miterlimit="10" stroke-dasharray="4.88 4.88"/>
  <path d="M348.723 94.9335H352.222V98.2983" stroke="#CCE8FF" stroke-miterlimit="10"/>
  <path d="M352.221 104.839V232.297" stroke="#CCE8FF" stroke-miterlimit="10" stroke-dasharray="4.86 4.86"/>
  <path d="M360.221 64.4012H57.2213V74.9509H360.221V64.4012Z" fill="#5EAEED"/>
  <path d="M138.799 84.9657H79.9421L81.2315 80.6547C82.013 78.0629 84.3964 76.2786 87.1055 76.2786H131.635C134.344 76.2786 136.728 78.0499 137.509 80.6547L138.799 84.9657Z" fill="white"/>
  <path d="M63.5577 72.4495C64.7517 72.4495 65.7197 71.4816 65.7197 70.2875C65.7197 69.0935 64.7517 68.1255 63.5577 68.1255C62.3636 68.1255 61.3956 69.0935 61.3956 70.2875C61.3956 71.4816 62.3636 72.4495 63.5577 72.4495Z" fill="#CCE8FF"/>
  <path d="M72.4141 70.2875C72.4141 71.4857 71.4503 72.4495 70.2521 72.4495C69.0539 72.4495 68.0901 71.4857 68.0901 70.2875C68.0901 69.0893 69.0539 68.1255 70.2521 68.1255C71.4503 68.1255 72.4141 69.0893 72.4141 70.2875Z" fill="#CCE8FF"/>
  <path d="M79.1086 70.2875C79.1086 71.4857 78.1448 72.4495 76.9466 72.4495C75.7483 72.4495 74.7845 71.4857 74.7845 70.2875C74.7845 69.0893 75.7483 68.1255 76.9466 68.1255C78.1448 68.1255 79.1086 69.0893 79.1086 70.2875Z" fill="#CCE8FF"/>
  <path d="M118.611 29.1437C114.977 29.1437 112.021 26.1872 112.021 22.5534C112.021 18.9196 114.977 15.9631 118.611 15.9631C122.245 15.9631 125.201 18.9196 125.201 22.5534C125.201 26.1872 122.245 29.1437 118.611 29.1437ZM118.611 18.568C116.41 18.568 114.626 20.3523 114.626 22.5534C114.626 24.7545 116.41 26.5388 118.611 26.5388C120.812 26.5388 122.597 24.7545 122.597 22.5534C122.597 20.3523 120.812 18.568 118.611 18.568Z" fill="#CCE8FF"/>
  <path d="M331.557 306.352C327.923 306.352 324.967 303.395 324.967 299.762C324.967 296.128 327.923 293.171 331.557 293.171C335.191 293.171 338.147 296.128 338.147 299.762C338.147 303.395 335.191 306.352 331.557 306.352ZM331.557 295.776C329.356 295.776 327.572 297.561 327.572 299.762C327.572 301.963 329.356 303.747 331.557 303.747C333.758 303.747 335.542 301.963 335.542 299.762C335.542 297.561 333.745 295.776 331.557 295.776Z" fill="white"/>
  <path d="M343.279 32.9867C339.645 32.9867 336.689 30.0302 336.689 26.3964C336.689 22.7626 339.645 19.8062 343.279 19.8062C346.913 19.8062 349.869 22.7626 349.869 26.3964C349.869 30.0302 346.913 32.9867 343.279 32.9867ZM343.279 22.424C341.078 22.424 339.294 24.2083 339.294 26.4094C339.294 28.6105 341.078 30.3949 343.279 30.3949C345.48 30.3949 347.265 28.6105 347.265 26.4094C347.265 24.2083 345.467 22.424 343.279 22.424Z" fill="#CCE8FF"/>
  <path d="M418.189 273.934C414.555 273.934 411.598 270.978 411.598 267.344C411.598 263.71 414.555 260.754 418.189 260.754C421.822 260.754 424.779 263.71 424.779 267.344C424.779 270.978 421.822 273.934 418.189 273.934ZM418.189 263.372C415.987 263.372 414.203 265.156 414.203 267.357C414.203 269.558 415.987 271.342 418.189 271.342C420.39 271.342 422.174 269.558 422.174 267.357C422.174 265.156 420.377 263.372 418.189 263.372Z" fill="#CCE8FF"/>
  <path d="M6.81158 158.735C3.17782 158.735 0.221313 155.779 0.221313 152.145C0.221313 148.511 3.17782 145.555 6.81158 145.555C10.4453 145.555 13.4018 148.511 13.4018 152.145C13.4018 155.779 10.4453 158.735 6.81158 158.735ZM6.81158 148.159C4.61049 148.159 2.82616 149.944 2.82616 152.145C2.82616 154.346 4.61049 156.13 6.81158 156.13C9.01268 156.13 10.797 154.346 10.797 152.145C10.797 149.944 9.01268 148.159 6.81158 148.159Z" fill="#80C6FF"/>
  <path d="M219.705 5.64825H216.944V2.88711C216.944 1.8061 216.071 0.933472 214.99 0.933472C213.909 0.933472 213.037 1.8061 213.037 2.88711V5.64825H210.276C209.195 5.64825 208.322 6.52087 208.322 7.60188C208.322 8.68289 209.195 9.55552 210.276 9.55552H213.037V12.3167C213.037 13.3977 213.909 14.2703 214.99 14.2703C216.071 14.2703 216.944 13.3977 216.944 12.3167V9.55552H219.705C220.786 9.55552 221.659 8.68289 221.659 7.60188C221.659 6.52087 220.786 5.64825 219.705 5.64825Z" fill="#80C6FF"/>
  <path d="M16.5271 243.835H13.766V241.074C13.766 239.993 12.8933 239.12 11.8123 239.12C10.7313 239.12 9.8587 239.993 9.8587 241.074V243.835H7.09756C6.01654 243.835 5.14392 244.708 5.14392 245.789C5.14392 246.87 6.01654 247.742 7.09756 247.742H9.8587V250.504C9.8587 251.585 10.7313 252.457 11.8123 252.457C12.8933 252.457 13.766 251.585 13.766 250.504V247.742H16.5271C17.6081 247.742 18.4807 246.87 18.4807 245.789C18.4807 244.708 17.6081 243.835 16.5271 243.835Z" fill="#80C6FF"/>
  <path d="M81.6483 302.445H78.8872V299.683C78.8872 298.602 78.0145 297.73 76.9335 297.73C75.8525 297.73 74.9799 298.602 74.9799 299.683V302.445H72.2188C71.1378 302.445 70.2651 303.317 70.2651 304.398C70.2651 305.479 71.1378 306.352 72.2188 306.352H74.9799V309.113C74.9799 310.194 75.8525 311.067 76.9335 311.067C78.0145 311.067 78.8872 310.194 78.8872 309.113V306.352H81.6483C82.7293 306.352 83.6019 305.479 83.6019 304.398C83.6019 303.317 82.7293 302.445 81.6483 302.445Z" fill="white"/>
  <path d="M422.252 174.156H419.491V171.395C419.491 170.314 418.618 169.441 417.537 169.441C416.456 169.441 415.584 170.314 415.584 171.395V174.156H412.822C411.741 174.156 410.869 175.029 410.869 176.11C410.869 177.191 411.741 178.063 412.822 178.063H415.584V180.824C415.584 181.905 416.456 182.778 417.537 182.778C418.618 182.778 419.491 181.905 419.491 180.824V178.063H422.252C423.333 178.063 424.206 177.191 424.206 176.11C424.206 175.029 423.333 174.156 422.252 174.156Z" fill="#CCE8FF"/>
  <path d="M127.977 131.701L157.176 160.9" stroke="#B3DDFF" stroke-width="8" stroke-linecap="square"/>
  <path d="M156.42 131.701L127.221 160.9" stroke="#B3DDFF" stroke-width="8" stroke-linecap="square"/>
  <path d="M263.022 131.701L292.221 160.9" stroke="#B3DDFF" stroke-width="8" stroke-linecap="square"/>
  <path d="M291.465 131.701L262.266 160.9" stroke="#B3DDFF" stroke-width="8" stroke-linecap="square"/>
  <line x1="157.333" y1="204.469" x2="262.266" y2="204.469" stroke="#B3DDFF" stroke-width="8"/>
  </svg>
  