<svg width="41" height="41" viewBox="0 0 41 41" fill="none" xmlns="http://www.w3.org/2000/svg">
  <path d="M25.1234 10.8224L22.7249 10.8182C20.0302 10.8182 18.2888 12.7501 18.2888 15.7403V18.0096H15.8771C15.6688 18.0096 15.5 18.1923 15.5 18.4177V21.7057C15.5 21.9311 15.6689 22.1136 15.8771 22.1136H18.2888V30.4104C18.2888 30.6358 18.4575 30.8182 18.6659 30.8182H21.8124C22.0208 30.8182 22.1896 30.6356 22.1896 30.4104V22.1136H25.0093C25.2177 22.1136 25.3865 21.9311 25.3865 21.7057L25.3876 18.4177C25.3876 18.3095 25.3478 18.2059 25.2772 18.1293C25.2066 18.0527 25.1103 18.0096 25.0103 18.0096H22.1896V16.0859C22.1896 15.1612 22.3933 14.6918 23.5073 14.6918L25.123 14.6912C25.3312 14.6912 25.5 14.5085 25.5 14.2834V11.2302C25.5 11.0053 25.3314 10.8228 25.1234 10.8224Z" fill="#2C363F"/>
  </svg>
  