<svg width="24" height="25" viewBox="0 0 24 25" fill="none" xmlns="http://www.w3.org/2000/svg">
  <path d="M15 12.6357C15 13.3545 14.9375 14.0107 14.875 14.6357H9.09375C9.03125 14.0107 8.96875 13.3545 8.96875 12.6357C8.96875 11.9482 9.03125 11.292 9.09375 10.6357H14.875C14.9375 11.292 15 11.9482 15 12.6357ZM19.7188 10.6357C19.9062 11.292 20 11.9482 20 12.6357C20 13.3545 19.9062 14.0107 19.7188 14.6357H15.875C15.9375 14.0107 16 13.3232 16 12.6357C16 11.9482 15.9375 11.292 15.875 10.6357H19.7188ZM19.4062 9.63574H15.75C15.4375 7.66699 14.8125 5.97949 14.0312 4.91699C16.4688 5.57324 18.4688 7.32324 19.4062 9.63574ZM14.75 9.63574H9.21875C9.40625 8.51074 9.71875 7.51074 10.0625 6.69824C10.4062 5.94824 10.75 5.41699 11.125 5.07324C11.4688 4.76074 11.75 4.63574 12 4.63574C12.2188 4.63574 12.5 4.76074 12.8438 5.07324C13.2188 5.41699 13.5625 5.94824 13.9062 6.69824C14.25 7.51074 14.5625 8.51074 14.75 9.63574ZM4.5625 9.63574C5.5 7.32324 7.5 5.57324 9.9375 4.91699C9.15625 5.97949 8.53125 7.66699 8.21875 9.63574H4.5625ZM8.09375 10.6357C8.03125 11.292 7.96875 11.9482 7.96875 12.6357C7.96875 13.3232 8.03125 14.0107 8.09375 14.6357H4.25C4.0625 14.0107 4 13.3545 4 12.6357C4 11.9482 4.0625 11.292 4.25 10.6357H8.09375ZM10.0625 18.6045C9.71875 17.792 9.40625 16.792 9.21875 15.6357H14.75C14.5625 16.792 14.25 17.792 13.9062 18.6045C13.5625 19.3545 13.2188 19.8857 12.8438 20.2295C12.5 20.542 12.2188 20.6357 11.9688 20.6357C11.75 20.6357 11.4688 20.542 11.125 20.2295C10.75 19.8857 10.4062 19.3545 10.0625 18.6045ZM9.9375 20.3857C7.5 19.7295 5.5 17.9795 4.5625 15.6357H8.21875C8.53125 17.6357 9.15625 19.3232 9.9375 20.3857ZM14.0312 20.3857C14.8125 19.3232 15.4375 17.6357 15.75 15.6357H19.4062C18.4688 17.9795 16.4688 19.7295 14.0312 20.3857Z" fill="#96999E"/>
  </svg>
  