<svg width="24" height="24" viewBox="0 0 24 24" fill="none" xmlns="http://www.w3.org/2000/svg">
  <path d="M15.375 12.25C15.375 13.0234 15.3398 13.7734 15.2695 14.5H8.73047C8.66016 13.7734 8.61328 13.0234 8.58984 12.25C8.61328 11.4766 8.66016 10.7266 8.73047 10H15.2695C15.3398 10.7266 15.375 11.4766 15.375 12.25ZM20.7188 10C20.9062 10.7266 21 11.4766 21 12.25C21 13.0234 20.9062 13.7734 20.7188 14.5H16.3945C16.4648 13.75 16.5 13 16.5 12.25C16.5 11.4766 16.4648 10.7266 16.3945 10H20.7188ZM20.332 8.875H16.2539C15.8789 6.57813 15.2227 4.79688 14.2852 3.53125C15.6914 3.92969 16.9219 4.58594 17.9766 5.5C19.0078 6.4375 19.793 7.5625 20.332 8.875ZM15.0938 8.875H8.90625C9.11719 7.58594 9.43359 6.47266 9.85547 5.53516C10.2305 4.71484 10.6172 4.11719 11.0156 3.74219C11.4141 3.39062 11.7422 3.22656 12 3.25C12.2578 3.22656 12.5859 3.39062 12.9844 3.74219C13.3828 4.11719 13.7695 4.71484 14.1445 5.53516C14.5664 6.47266 14.8828 7.58594 15.0938 8.875ZM3.66797 8.875C4.20703 7.5625 4.99219 6.4375 6.02344 5.5C7.07812 4.58594 8.30859 3.92969 9.71484 3.53125C8.77734 4.79688 8.12109 6.57813 7.74609 8.875H3.66797ZM7.60547 10C7.53516 10.7266 7.48828 11.4766 7.46484 12.25C7.48828 13 7.53516 13.75 7.60547 14.5H3.28125C3.09375 13.7734 3 13.0234 3 12.25C3 11.4766 3.09375 10.7266 3.28125 10H7.60547ZM9.85547 18.9648C9.43359 18.0273 9.11719 16.9141 8.90625 15.625H15.0938C14.8828 16.9141 14.5664 18.0273 14.1445 18.9648C13.7695 19.7852 13.3828 20.3828 12.9844 20.7578C12.5859 21.1094 12.2461 21.2734 11.9648 21.25C11.7305 21.2734 11.4141 21.1094 11.0156 20.7578C10.6172 20.3828 10.2305 19.7852 9.85547 18.9648ZM9.71484 20.9688C8.30859 20.5703 7.07812 19.9141 6.02344 19C4.99219 18.0625 4.20703 16.9375 3.66797 15.625H7.74609C8.12109 17.9219 8.77734 19.7031 9.71484 20.9688ZM14.2852 20.9688C15.2227 19.7031 15.8789 17.9219 16.2539 15.625H20.332C19.793 16.9375 19.0078 18.0625 17.9766 19C16.9219 19.9141 15.6914 20.5703 14.2852 20.9688Z" fill="#75777B"/>
  </svg>
  