<svg width="108" height="33" viewBox="0 0 108 33" fill="none" xmlns="http://www.w3.org/2000/svg">
  <rect x="0.5" y="1.31812" width="107" height="31" rx="5.5" fill="#2C363F" stroke="#2C363F"/>
  <path d="M37.9357 9.01021C37.9357 9.68221 37.7357 10.2182 37.3357 10.6102C36.8877 11.0822 36.2957 11.3222 35.5757 11.3222C34.8797 11.3222 34.2957 11.0822 33.8077 10.6022C33.3197 10.1222 33.0797 9.52221 33.0797 8.81821C33.0797 8.10621 33.3197 7.51421 33.8077 7.03421C34.2957 6.55421 34.8797 6.31421 35.5757 6.31421C35.9197 6.31421 36.2477 6.37821 36.5597 6.51421C36.8717 6.65021 37.1197 6.82621 37.3117 7.05021L36.8877 7.47421C36.5677 7.09821 36.1357 6.90621 35.5757 6.90621C35.0717 6.90621 34.6317 7.08221 34.2637 7.44221C33.8957 7.79421 33.7117 8.25821 33.7117 8.82621C33.7117 9.39421 33.8957 9.85821 34.2637 10.2102C34.6317 10.5622 35.0717 10.7462 35.5757 10.7462C36.1117 10.7462 36.5597 10.5702 36.9197 10.2102C37.1517 9.97821 37.2877 9.65021 37.3197 9.23421H35.5757V8.65821H37.9037C37.9197 8.77821 37.9357 8.89821 37.9357 9.01021Z" fill="white" stroke="white" stroke-width="0.2" stroke-miterlimit="10"/>
  <path d="M41.6242 7.01009H39.4402V8.53009H41.4082V9.10609H39.4402V10.6261H41.6242V11.2181H38.8242V6.41809H41.6242V7.01009Z" fill="white" stroke="white" stroke-width="0.2" stroke-miterlimit="10"/>
  <path d="M44.224 11.2181H43.608V7.01009H42.264V6.41809H45.56V7.01009H44.216V11.2181H44.224Z" fill="white" stroke="white" stroke-width="0.2" stroke-miterlimit="10"/>
  <path d="M47.9515 11.2181V6.41809H48.5675V11.2181H47.9515Z" fill="white" stroke="white" stroke-width="0.2" stroke-miterlimit="10"/>
  <path d="M51.3037 11.2181H50.6878V7.01009H49.3438V6.41809H52.6398V7.01009H51.2958V11.2181H51.3037Z" fill="white" stroke="white" stroke-width="0.2" stroke-miterlimit="10"/>
  <path d="M58.8881 10.5942C58.4161 11.0822 57.8321 11.3222 57.1281 11.3222C56.4241 11.3222 55.8401 11.0822 55.3681 10.5942C54.8961 10.1062 54.6641 9.51421 54.6641 8.81821C54.6641 8.12221 54.8961 7.52221 55.3681 7.04221C55.8401 6.55421 56.4241 6.31421 57.1281 6.31421C57.8241 6.31421 58.4081 6.55421 58.8881 7.04221C59.3601 7.53021 59.6001 8.12221 59.6001 8.81821C59.5921 9.52221 59.3601 10.1142 58.8881 10.5942ZM55.8241 10.1942C56.1761 10.5542 56.6161 10.7302 57.1281 10.7302C57.6401 10.7302 58.0801 10.5542 58.4321 10.1942C58.7841 9.83421 58.9681 9.37821 58.9681 8.81821C58.9681 8.25821 58.7921 7.80221 58.4321 7.44221C58.0801 7.08221 57.6401 6.90621 57.1281 6.90621C56.6161 6.90621 56.1761 7.08221 55.8241 7.44221C55.4721 7.80221 55.2881 8.25821 55.2881 8.81821C55.2881 9.37821 55.4721 9.83421 55.8241 10.1942Z" fill="white" stroke="white" stroke-width="0.2" stroke-miterlimit="10"/>
  <path d="M60.4641 11.2181V6.41809H61.216L63.5521 10.1541H63.576L63.5521 9.22609V6.41809H64.168V11.2181H63.5281L61.088 7.30609H61.0641L61.088 8.23409V11.2181H60.4641Z" fill="white" stroke="white" stroke-width="0.2" stroke-miterlimit="10"/>
  <path d="M54.512 18.218C52.632 18.218 51.096 19.65 51.096 21.618C51.096 23.578 52.632 25.018 54.512 25.018C56.392 25.018 57.928 23.578 57.928 21.618C57.928 19.65 56.392 18.218 54.512 18.218ZM54.512 23.682C53.48 23.682 52.592 22.834 52.592 21.618C52.592 20.394 53.48 19.554 54.512 19.554C55.544 19.554 56.432 20.394 56.432 21.618C56.432 22.834 55.536 23.682 54.512 23.682ZM47.056 18.218C45.176 18.218 43.64 19.65 43.64 21.618C43.64 23.578 45.176 25.018 47.056 25.018C48.936 25.018 50.472 23.578 50.472 21.618C50.472 19.65 48.936 18.218 47.056 18.218ZM47.056 23.682C46.024 23.682 45.136 22.834 45.136 21.618C45.136 20.394 46.024 19.554 47.056 19.554C48.088 19.554 48.976 20.394 48.976 21.618C48.976 22.834 48.088 23.682 47.056 23.682ZM38.192 19.266V20.706H41.648C41.544 21.514 41.272 22.114 40.864 22.522C40.36 23.026 39.576 23.578 38.2 23.578C36.072 23.578 34.408 21.866 34.408 19.738C34.408 17.61 36.072 15.898 38.2 15.898C39.344 15.898 40.184 16.346 40.8 16.93L41.816 15.914C40.952 15.09 39.808 14.458 38.192 14.458C35.28 14.458 32.832 16.826 32.832 19.746C32.832 22.658 35.28 25.034 38.192 25.034C39.768 25.034 40.952 24.522 41.88 23.554C42.832 22.602 43.128 21.258 43.128 20.178C43.128 19.842 43.104 19.53 43.048 19.274H38.192V19.266ZM74.44 20.386C74.16 19.626 73.296 18.218 71.528 18.218C69.776 18.218 68.32 19.594 68.32 21.618C68.32 23.522 69.76 25.018 71.696 25.018C73.256 25.018 74.16 24.066 74.528 23.514L73.368 22.738C72.984 23.306 72.456 23.682 71.696 23.682C70.936 23.682 70.392 23.33 70.048 22.65L74.6 20.77L74.44 20.386ZM69.8 21.522C69.76 20.21 70.816 19.538 71.576 19.538C72.168 19.538 72.672 19.834 72.84 20.258L69.8 21.522ZM66.104 24.818H67.6V14.818H66.104V24.818ZM63.656 18.978H63.6C63.264 18.578 62.624 18.218 61.808 18.218C60.104 18.218 58.544 19.714 58.544 21.634C58.544 23.538 60.104 25.026 61.808 25.026C62.616 25.026 63.264 24.666 63.6 24.25H63.648V24.738C63.648 26.042 62.952 26.738 61.832 26.738C60.92 26.738 60.352 26.082 60.12 25.53L58.816 26.074C59.192 26.978 60.184 28.082 61.832 28.082C63.584 28.082 65.064 27.05 65.064 24.538V18.426H63.648V18.978H63.656ZM61.936 23.682C60.904 23.682 60.04 22.818 60.04 21.634C60.04 20.434 60.904 19.562 61.936 19.562C62.952 19.562 63.752 20.442 63.752 21.634C63.76 22.818 62.96 23.682 61.936 23.682ZM81.448 14.818H77.872V24.818H79.368V21.026H81.456C83.112 21.026 84.736 19.826 84.736 17.922C84.736 16.018 83.096 14.818 81.448 14.818ZM81.48 19.634H79.36V16.202H81.48C82.6 16.202 83.232 17.13 83.232 17.914C83.232 18.698 82.6 19.634 81.48 19.634ZM90.712 18.202C89.632 18.202 88.512 18.682 88.048 19.73L89.376 20.282C89.656 19.73 90.184 19.546 90.736 19.546C91.504 19.546 92.296 20.01 92.304 20.834V20.938C92.032 20.786 91.456 20.554 90.744 20.554C89.312 20.554 87.864 21.338 87.864 22.802C87.864 24.138 89.032 25.002 90.344 25.002C91.344 25.002 91.904 24.554 92.248 24.026H92.296V24.802H93.736V20.97C93.744 19.194 92.416 18.202 90.712 18.202ZM90.528 23.682C90.04 23.682 89.36 23.434 89.36 22.834C89.36 22.066 90.208 21.77 90.944 21.77C91.6 21.77 91.912 21.914 92.304 22.106C92.192 23.026 91.392 23.682 90.528 23.682ZM98.992 18.418L97.28 22.754H97.232L95.456 18.418H93.848L96.512 24.482L94.992 27.85H96.552L100.656 18.418H98.992ZM85.552 24.818H87.048V14.818H85.552V24.818Z" fill="white"/>
  <path d="M8.35152 6.84995C8.11952 7.09795 7.98352 7.48195 7.98352 7.96995V25.6659C7.98352 26.1619 8.11952 26.5459 8.35152 26.7859L8.40752 26.8419L18.3195 16.9379V16.8179V16.6979L8.40752 6.79395L8.35152 6.84995Z" fill="url(#paint0_linear_2007_5908)"/>
  <path d="M21.6242 20.2419L18.3203 16.9379V16.8179V16.6979L21.6242 13.3939L21.6962 13.4339L25.6082 15.6579C26.7282 16.2899 26.7282 17.3299 25.6082 17.9699L21.6962 20.1939L21.6242 20.2419Z" fill="url(#paint1_linear_2007_5908)"/>
  <path d="M21.6955 20.1941L18.3195 16.8181L8.3515 26.7861C8.7195 27.1781 9.3275 27.2261 10.0155 26.8341L21.6955 20.1941Z" fill="url(#paint2_linear_2007_5908)"/>
  <path d="M21.6957 13.4421L10.0077 6.8021C9.31969 6.4101 8.71169 6.45811 8.34369 6.85011L18.3197 16.8181L21.6957 13.4421Z" fill="url(#paint3_linear_2007_5908)"/>
  <path opacity="0.2" d="M21.6234 20.1221L10.0074 26.7221C9.35944 27.0901 8.77544 27.0661 8.40744 26.7301L8.35144 26.7861L8.40744 26.8421C8.78344 27.1781 9.35944 27.2021 10.0074 26.8341L21.6954 20.1941L21.6234 20.1221Z" fill="#2C363F"/>
  <path opacity="0.12" d="M8.35146 26.6741C8.11946 26.4261 7.98346 26.0421 7.98346 25.5541V25.6741C7.98346 26.1701 8.11946 26.5541 8.35146 26.7941L8.40746 26.7381L8.35146 26.6741Z" fill="#2C363F"/>
  <path opacity="0.12" d="M25.6075 17.8581L21.6155 20.1221L21.6875 20.1941L25.5995 17.9701C26.1595 17.6501 26.4395 17.2341 26.4395 16.8181C26.3995 17.1941 26.1195 17.5701 25.6075 17.8581Z" fill="#2C363F"/>
  <path opacity="0.25" d="M10.0077 6.91407L25.6077 15.7781C26.1117 16.0661 26.3997 16.4341 26.4477 16.8181C26.4477 16.4021 26.1677 15.9781 25.6077 15.6661L10.0077 6.80206C8.88771 6.17006 7.97571 6.69807 7.97571 7.97807V8.09807C7.97571 6.81007 8.89571 6.28207 10.0077 6.91407Z" fill="white"/>
  <defs>
  <linearGradient id="paint0_linear_2007_5908" x1="17.4393" y1="7.78571" x2="4.01336" y2="21.2116" gradientUnits="userSpaceOnUse">
  <stop stop-color="#00A0FF"/>
  <stop offset="0.00657445" stop-color="#00A1FF"/>
  <stop offset="0.2601" stop-color="#00BEFF"/>
  <stop offset="0.5122" stop-color="#00D2FF"/>
  <stop offset="0.7604" stop-color="#00DFFF"/>
  <stop offset="1" stop-color="#00E3FF"/>
  </linearGradient>
  <linearGradient id="paint1_linear_2007_5908" x1="27.0678" y1="16.819" x2="7.71025" y2="16.819" gradientUnits="userSpaceOnUse">
  <stop stop-color="#FFE000"/>
  <stop offset="0.4087" stop-color="#FFBD00"/>
  <stop offset="0.7754" stop-color="#FFA500"/>
  <stop offset="1" stop-color="#FF9C00"/>
  </linearGradient>
  <linearGradient id="paint2_linear_2007_5908" x1="19.8611" y1="18.655" x2="1.65446" y2="36.8616" gradientUnits="userSpaceOnUse">
  <stop stop-color="#FF3A44"/>
  <stop offset="1" stop-color="#C31162"/>
  </linearGradient>
  <linearGradient id="paint3_linear_2007_5908" x1="5.83753" y1="0.959065" x2="13.9676" y2="9.08906" gradientUnits="userSpaceOnUse">
  <stop stop-color="#32A071"/>
  <stop offset="0.0685" stop-color="#2DA771"/>
  <stop offset="0.4762" stop-color="#15CF74"/>
  <stop offset="0.8009" stop-color="#06E775"/>
  <stop offset="1" stop-color="#00F076"/>
  </linearGradient>
  </defs>
  </svg>
  