<svg width="26" height="26" viewBox="0 0 26 26" fill="none" xmlns="http://www.w3.org/2000/svg">
  <path d="M9.08432 0.943433C6.50531 1.83812 4.28117 3.53625 2.7386 5.78841C1.19603 8.04058 0.416335 10.7281 0.514039 13.4561C0.611743 16.1841 1.5817 18.8089 3.28143 20.945C4.98116 23.081 7.32108 24.6157 9.95749 25.3236C12.0949 25.8751 14.3342 25.8993 16.4831 25.3942C18.4297 24.9569 20.2294 24.0216 21.7059 22.6799C23.2427 21.2408 24.3582 19.41 24.9324 17.3844C25.5564 15.1816 25.6674 12.8652 25.2571 10.6128H13.2546V15.5917H20.2056C20.0667 16.3858 19.769 17.1437 19.3303 17.8201C18.8917 18.4964 18.3211 19.0773 17.6527 19.528C16.804 20.0897 15.8471 20.4675 14.8436 20.6371C13.8372 20.8243 12.805 20.8243 11.7986 20.6371C10.7785 20.4265 9.81359 20.0055 8.96534 19.401C7.60245 18.4362 6.5791 17.0656 6.04133 15.4848C5.49462 13.8744 5.49462 12.1285 6.04133 10.518C6.42413 9.3892 7.05694 8.36141 7.89253 7.51136C8.84877 6.52072 10.0594 5.8126 11.3916 5.4647C12.7238 5.11681 14.126 5.14257 15.4445 5.53916C16.4746 5.85521 17.4165 6.40765 18.1951 7.15241C18.9789 6.37267 19.7613 5.59092 20.5424 4.80715C20.9457 4.38569 21.3853 3.9844 21.7826 3.55286C20.5939 2.44681 19.1987 1.58612 17.6769 1.02006C14.9055 0.0137797 11.8732 -0.0132632 9.08432 0.943433Z" fill="white"/>
  <path d="M9.0847 0.943436C11.8733 -0.0139099 14.9057 0.0124211 17.6772 1.01805C19.1993 1.58795 20.5939 2.45279 21.7809 3.56294C21.3776 3.99449 20.9521 4.3978 20.5408 4.81724C19.7583 5.59832 18.9766 6.37671 18.1955 7.15241C17.4169 6.40765 16.475 5.85521 15.4449 5.53917C14.1268 5.14118 12.7246 5.11393 11.3921 5.46041C10.0595 5.80688 8.84818 6.51369 7.89089 7.50329C7.0553 8.35334 6.42249 9.38114 6.0397 10.51L1.85938 7.27341C3.35568 4.30617 5.94643 2.03646 9.0847 0.943436Z" fill="#E33629"/>
  <path d="M0.750047 10.4798C0.97457 9.36616 1.3476 8.28775 1.85915 7.27344L6.03947 10.5181C5.49276 12.1285 5.49276 13.8744 6.03947 15.4849C4.64671 16.5604 3.25327 17.6412 1.85915 18.7275C0.578944 16.1792 0.188502 13.2757 0.750047 10.4798Z" fill="#F8BD00"/>
  <path d="M13.2548 10.6108H25.2573C25.6677 12.8632 25.5566 15.1797 24.9327 17.3824C24.3584 19.408 23.243 21.2388 21.7062 22.6779C20.3571 21.6253 19.002 20.5807 17.6529 19.5281C18.3218 19.0769 18.8926 18.4954 19.3313 17.8183C19.77 17.1412 20.0675 16.3825 20.2059 15.5877H13.2548C13.2528 13.9301 13.2548 12.2705 13.2548 10.6108Z" fill="#587DBD"/>
  <path d="M1.85718 18.7275C3.25129 17.652 4.64473 16.5711 6.0375 15.4849C6.57634 17.0662 7.60115 18.4369 8.96554 19.401C9.81642 20.0027 10.7835 20.4203 11.8048 20.6271C12.8112 20.8143 13.8435 20.8143 14.8498 20.6271C15.8533 20.4575 16.8102 20.0797 17.6589 19.518C19.008 20.5706 20.3631 21.6152 21.7122 22.6678C20.2358 24.0103 18.4361 24.9463 16.4893 25.3841C14.3405 25.8893 12.1011 25.8651 9.96373 25.3136C8.27326 24.8622 6.69424 24.0665 5.32565 22.9764C3.87722 21.8262 2.69412 20.3769 1.85718 18.7275Z" fill="#319F43"/>
  </svg>
  