<svg width="41" height="41" viewBox="0 0 41 41" fill="none" xmlns="http://www.w3.org/2000/svg">
  <path d="M20.502 16.2033C17.907 16.2033 15.8138 18.2637 15.8138 20.8182C15.8138 23.3727 17.907 25.4332 20.502 25.4332C23.0971 25.4332 25.1903 23.3727 25.1903 20.8182C25.1903 18.2637 23.0971 16.2033 20.502 16.2033ZM20.502 23.8186C18.825 23.8186 17.4541 22.473 17.4541 20.8182C17.4541 19.1634 18.821 17.8179 20.502 17.8179C22.1831 17.8179 23.55 19.1634 23.55 20.8182C23.55 22.473 22.179 23.8186 20.502 23.8186ZM26.4755 16.0145C26.4755 16.6129 25.9859 17.0909 25.382 17.0909C24.7741 17.0909 24.2885 16.6089 24.2885 16.0145C24.2885 15.42 24.7782 14.9381 25.382 14.9381C25.9859 14.9381 26.4755 15.42 26.4755 16.0145ZM29.5806 17.107C29.5113 15.6651 29.1767 14.3878 28.1036 13.3355C27.0345 12.2831 25.737 11.9538 24.2722 11.8815C22.7625 11.7972 18.2375 11.7972 16.7278 11.8815C15.2671 11.9498 13.9695 12.2791 12.8964 13.3315C11.8233 14.3838 11.4928 15.661 11.4194 17.103C11.3337 18.5891 11.3337 23.0434 11.4194 24.5295C11.4887 25.9714 11.8233 27.2487 12.8964 28.301C13.9695 29.3533 15.263 29.6827 16.7278 29.755C18.2375 29.8393 22.7625 29.8393 24.2722 29.755C25.737 29.6867 27.0345 29.3573 28.1036 28.301C29.1726 27.2487 29.5072 25.9714 29.5806 24.5295C29.6663 23.0434 29.6663 18.5931 29.5806 17.107ZM27.6303 26.1241C27.312 26.9113 26.6959 27.5178 25.8921 27.8351C24.6884 28.305 21.8322 28.1966 20.502 28.1966C19.1719 28.1966 16.3116 28.301 15.112 27.8351C14.3123 27.5218 13.6962 26.9153 13.3738 26.1241C12.8964 24.9392 13.0066 22.1276 13.0066 20.8182C13.0066 19.5089 12.9005 16.6933 13.3738 15.5124C13.6921 14.7252 14.3082 14.1187 15.112 13.8014C16.3157 13.3315 19.1719 13.4399 20.502 13.4399C21.8322 13.4399 24.6925 13.3355 25.8921 13.8014C26.6918 14.1147 27.3079 14.7212 27.6303 15.5124C28.1077 16.6973 27.9975 19.5089 27.9975 20.8182C27.9975 22.1276 28.1077 24.9432 27.6303 26.1241Z" fill="#2C363F"/>
  </svg>
  