<svg width="45" height="41" viewBox="0 0 45 41" fill="none" xmlns="http://www.w3.org/2000/svg">
  <path fill-rule="evenodd" clip-rule="evenodd" d="M16.5855 10.8182C15.1735 10.8182 14.25 11.6993 14.25 12.858C14.25 13.9914 15.1468 14.8992 16.5307 14.8992H16.5583C17.9975 14.8992 18.8926 13.9916 18.8926 12.858C18.8655 11.6993 17.9975 10.8182 16.5855 10.8182ZM33.4996 21.5474V28.3182H29.3737V22.0009C29.3737 20.4139 28.7769 19.3309 27.2835 19.3309C26.1434 19.3309 25.465 20.0608 25.1665 20.7668C25.0576 21.0193 25.0296 21.3706 25.0296 21.7239V28.3182H20.9023C20.9023 28.3182 20.9579 17.6188 20.9023 16.5102H25.0292V18.184C25.027 18.1873 25.0246 18.1906 25.0222 18.194C25.0202 18.1967 25.0183 18.1994 25.0163 18.2021C25.0113 18.2089 25.0063 18.2157 25.0021 18.2221H25.0292V18.184C25.5775 17.3805 26.5567 16.2328 28.7485 16.2328C31.4639 16.2328 33.4996 17.9205 33.4996 21.5474ZM18.6209 28.3183H14.4951V16.5103H18.6209V28.3183Z" fill="#2C363F"/>
  </svg>
  