<svg width="16" height="16" viewBox="0 0 16 16" fill="none" xmlns="http://www.w3.org/2000/svg">
  <g clip-path="url(#clip0_1734_36629)">
  <path d="M2.66675 11.9999H4.00008V13.3333H12.0001V2.66659H4.00008V3.99992H2.66675V1.99992C2.66675 1.82311 2.73699 1.65354 2.86201 1.52851C2.98703 1.40349 3.1566 1.33325 3.33341 1.33325H12.6667C12.8436 1.33325 13.0131 1.40349 13.1382 1.52851C13.2632 1.65354 13.3334 1.82311 13.3334 1.99992V13.9999C13.3334 14.1767 13.2632 14.3463 13.1382 14.4713C13.0131 14.5963 12.8436 14.6666 12.6667 14.6666H3.33341C3.1566 14.6666 2.98703 14.5963 2.86201 14.4713C2.73699 14.3463 2.66675 14.1767 2.66675 13.9999V11.9999ZM4.00008 7.33325H8.66675V8.66659H4.00008V10.6666L0.666748 7.99992L4.00008 5.33325V7.33325Z" fill="#E82A53"/>
  </g>
  <defs>
  <clipPath id="clip0_1734_36629">
  <rect width="16" height="16" fill="white"/>
  </clipPath>
  </defs>
  </svg>
  