<svg width="20" height="20" viewBox="0 0 20 20" fill="none" xmlns="http://www.w3.org/2000/svg">
  <path d="M17.1485 15.3828L13.6621 11.8672C14.4824 10.6563 14.8047 9.24027 14.6289 7.61917C14.4141 6.25197 13.8281 5.09962 12.8711 4.16213C11.9141 3.2051 10.752 2.62893 9.38477 2.43362C8.03712 2.27737 6.81642 2.49221 5.72267 3.07815C4.64846 3.68362 3.80862 4.52346 3.20315 5.59767C2.61721 6.69142 2.40237 7.91212 2.55862 9.25977C2.75393 10.627 3.3301 11.7891 4.28713 12.7461C5.22462 13.7227 6.37697 14.3086 7.74417 14.5039C9.36527 14.6797 10.7813 14.3574 11.9922 13.5371L15.5078 17.0235C15.7422 17.2578 16.0156 17.375 16.3281 17.375C16.6406 17.375 16.9141 17.2578 17.1485 17.0235C17.3828 16.7891 17.5 16.5156 17.5 16.2031C17.5 15.8906 17.3828 15.6172 17.1485 15.3828ZM4.81448 8.46877C4.83401 7.41407 5.20512 6.53517 5.92777 5.83207C6.63087 5.10937 7.50977 4.7383 8.56447 4.71877C9.61917 4.7383 10.5078 5.10937 11.2305 5.83207C11.9336 6.53517 12.2949 7.41407 12.3145 8.46877C12.2949 9.52347 11.9336 10.4024 11.2305 11.1055C10.5078 11.8281 9.61917 12.1992 8.56447 12.2188C7.50977 12.1992 6.63087 11.8281 5.92777 11.1055C5.20512 10.4024 4.83401 9.52347 4.81448 8.46877Z" fill="#75777B"/>
  </svg>
  