<svg width="95" height="25" viewBox="0 0 95 25" fill="none" xmlns="http://www.w3.org/2000/svg">
  <g clip-path="url(#clip0_831_11488)">
  <path d="M16.0466 24.2494L20.6104 5.82394L21.8336 24.6357H26.9542L25.3934 0.644941H17.3975L13.4817 16.7707L9.55674 0.644941H1.56084L0 24.6357H5.12066L6.34378 5.82394L10.9076 24.2494H16.0466ZM84.4772 9.73348H87.5624L88.6303 7.75571L87.5715 5.81474H84.4772V9.73348ZM75.6507 9.73348H78.3525V17.5066C78.3525 21.5909 79.3748 24.6357 83.8474 24.6357C85.463 24.6357 86.8048 24.2218 87.5624 23.9182V19.5579C84.888 20.0639 83.5827 20.2295 83.5827 16.6419V0.635742H78.3525V5.82394H76.0614L75.6507 9.73348ZM51.0788 16.7799C51.4348 21.3057 58.4267 20.5146 61.4479 19.5579L62.1964 23.4675C55.1224 26.1904 45.6843 24.415 45.6843 15.1425C45.6843 2.78829 63.2096 1.44525 63.2096 14.4985C63.2096 15.4828 63.1001 16.3567 63.027 16.7707H51.0788V16.7799ZM57.9064 12.8335C57.9064 7.72812 51.0697 7.65452 51.1153 12.8335H57.9064ZM69.097 10.7914C69.097 8.43643 73.4418 9.19994 74.7562 9.73348L75.1578 5.82394C70.7582 4.4533 63.9307 5.47438 63.9398 11.3157C63.8485 17.0742 72.2643 16.2831 72.2643 19.0244C72.2643 21.9129 65.6741 20.4318 64.241 19.5579L63.4925 23.4767C68.385 25.6568 77.6862 25.1693 77.4397 18.6288C77.3576 12.2724 69.097 13.3947 69.097 10.7914Z" fill="#0061AF"/>
  <path d="M32.6504 16.7798C33.0063 21.3057 39.9982 20.5145 43.0195 19.5579L43.7679 23.4674C36.6939 26.1903 27.2559 24.4149 27.2559 15.1424C27.2559 2.78821 44.7811 1.44517 44.7811 14.4984C44.7811 15.4827 44.6716 16.3566 44.5986 16.7706H32.6504V16.7798ZM39.4779 12.8334C39.4779 7.72804 32.6412 7.65444 32.6869 12.8334H39.4779Z" fill="#E82A53"/>
  <path d="M90.3557 0.635742L94.2441 7.75571L90.3557 14.9217H86.4673L90.3557 7.75571L86.4673 0.635742H90.3557Z" fill="#E82A53"/>
  </g>
  <defs>
  <clipPath id="clip0_831_11488">
  <rect width="94.2439" height="24" fill="white" transform="translate(0 0.635742)"/>
  </clipPath>
  </defs>
  </svg>
  