<svg width="22" height="18" viewBox="0 0 22 18" fill="none" xmlns="http://www.w3.org/2000/svg">
  <path d="M0.5 1.5C0.5 1.0625 0.640625 0.703125 0.921875 0.421875C1.20312 0.140625 1.5625 0 2 0H20C20.4375 0 20.7969 0.140625 21.0781 0.421875C21.3594 0.703125 21.5 1.0625 21.5 1.5C21.5 1.9375 21.3594 2.29688 21.0781 2.57812C20.7969 2.85938 20.4375 3 20 3H2C1.5625 3 1.20312 2.85938 0.921875 2.57812C0.640625 2.29688 0.5 1.9375 0.5 1.5ZM0.5 9C0.5 8.5625 0.640625 8.20312 0.921875 7.92188C1.20312 7.64062 1.5625 7.5 2 7.5H20C20.4375 7.5 20.7969 7.64062 21.0781 7.92188C21.3594 8.20312 21.5 8.5625 21.5 9C21.5 9.4375 21.3594 9.79688 21.0781 10.0781C20.7969 10.3594 20.4375 10.5 20 10.5H2C1.5625 10.5 1.20312 10.3594 0.921875 10.0781C0.640625 9.79688 0.5 9.4375 0.5 9ZM20 18H2C1.5625 18 1.20312 17.8594 0.921875 17.5781C0.640625 17.2969 0.5 16.9375 0.5 16.5C0.5 16.0625 0.640625 15.7031 0.921875 15.4219C1.20312 15.1406 1.5625 15 2 15H20C20.4375 15 20.7969 15.1406 21.0781 15.4219C21.3594 15.7031 21.5 16.0625 21.5 16.5C21.5 16.9375 21.3594 17.2969 21.0781 17.5781C20.7969 17.8594 20.4375 18 20 18Z" fill="#0070CC"/>
  </svg>
  