<svg width="24" height="24" viewBox="0 0 24 24" fill="none" xmlns="http://www.w3.org/2000/svg">
  <path d="M13.125 4.375V5.04297C14.4375 5.32422 15.5039 5.96875 16.3242 6.97656C17.168 7.98438 17.6016 9.17969 17.625 10.5625V11.2305C17.6484 12.9414 18.2227 14.4297 19.3477 15.6953L19.5938 16.0117C19.8984 16.3633 19.957 16.7617 19.7695 17.207C19.5586 17.6289 19.2188 17.8516 18.75 17.875H5.25C4.78125 17.8516 4.44141 17.6289 4.23047 17.207C4.04297 16.7617 4.10156 16.3633 4.40625 16.0117L4.6875 15.6953C5.78906 14.4297 6.35156 12.9414 6.375 11.2305V10.5625C6.39844 9.17969 6.82031 7.98438 7.64062 6.97656C8.48438 5.96875 9.5625 5.32422 10.875 5.04297V4.375C10.875 4.04688 10.9805 3.77734 11.1914 3.56641C11.4023 3.35547 11.6719 3.25 12 3.25C12.3281 3.25 12.5977 3.35547 12.8086 3.56641C13.0195 3.77734 13.125 4.04688 13.125 4.375ZM12 21.25C11.3906 21.25 10.8633 21.0273 10.418 20.582C9.97266 20.1367 9.75 19.6094 9.75 19H14.25C14.25 19.6094 14.0273 20.1367 13.582 20.582C13.1367 21.0273 12.6094 21.25 12 21.25Z" fill="#75777B"/>
  <rect x="14.5" y="3.5" width="7" height="7" rx="3.5" fill="#E82A53"/>
  <rect x="14.5" y="3.5" width="7" height="7" rx="3.5" stroke="#F5F6F7"/>
</svg>
  