<svg width="17" height="16" viewBox="0 0 17 16" fill="none" xmlns="http://www.w3.org/2000/svg">
  <path d="M14.1875 7.75C14.151 8.15104 13.9323 8.36979 13.5312 8.40625H9.15625V12.7812C9.11979 13.1823 8.90104 13.401 8.5 13.4375C8.09896 13.401 7.88021 13.1823 7.84375 12.7812V8.40625H3.46875C3.06771 8.36979 2.84896 8.15104 2.8125 7.75C2.84896 7.34896 3.06771 7.13021 3.46875 7.09375H7.84375V2.71875C7.88021 2.31771 8.09896 2.09896 8.5 2.0625C8.90104 2.09896 9.11979 2.31771 9.15625 2.71875V7.09375H13.5312C13.9323 7.13021 14.151 7.34896 14.1875 7.75Z" fill="white"/>
  </svg>
  