<svg width="24" height="24" viewBox="0 0 24 24" fill="none" xmlns="http://www.w3.org/2000/svg">
  <path d="M12 3.25C10.3125 3.27344 8.80078 3.68359 7.46484 4.48047C6.10547 5.27734 5.02734 6.35547 4.23047 7.71484C3.43359 9.05078 3.02344 10.5625 3 12.25C3.02344 13.9375 3.43359 15.4492 4.23047 16.7852C5.02734 18.1445 6.10547 19.2227 7.46484 20.0195C8.80078 20.8164 10.3125 21.2266 12 21.25C13.6875 21.2266 15.1992 20.8164 16.5352 20.0195C17.8945 19.2227 18.9727 18.1445 19.7695 16.7852C20.5664 15.4492 20.9766 13.9375 21 12.25C20.9766 10.5625 20.5664 9.05078 19.7695 7.71484C18.9727 6.35547 17.8945 5.27734 16.5352 4.48047C15.1992 3.68359 13.6875 3.27344 12 3.25ZM12 17.3125C11.6719 17.3125 11.4023 17.207 11.1914 16.9961C10.9805 16.7852 10.875 16.5156 10.875 16.1875C10.9219 15.5078 11.2969 15.1328 12 15.0625C12.3047 15.0625 12.5625 15.168 12.7734 15.3789C13.0078 15.5898 13.125 15.8594 13.125 16.1875C13.125 16.5156 13.0078 16.7852 12.7734 16.9961C12.5625 17.207 12.3047 17.3125 12 17.3125ZM14.4258 12.3203L12.8438 13.3047V13.375C12.7969 13.8906 12.5156 14.1719 12 14.2188C11.4844 14.1719 11.2031 13.8906 11.1562 13.375V12.8125C11.1562 12.5078 11.2969 12.2617 11.5781 12.0742L13.582 10.8789C13.8398 10.7383 13.9688 10.5156 13.9688 10.2109C13.9219 9.74219 13.6523 9.48438 13.1602 9.4375H11.3672C10.875 9.48438 10.6172 9.74219 10.5938 10.2109C10.5469 10.7266 10.2656 11.0078 9.75 11.0547C9.23438 11.0078 8.95312 10.7266 8.90625 10.2109C8.92969 9.50781 9.16406 8.92188 9.60938 8.45312C10.0781 8.00781 10.6523 7.77344 11.332 7.75H13.125C13.8516 7.77344 14.4492 8.00781 14.918 8.45312C15.3867 8.92188 15.6328 9.50781 15.6562 10.2109C15.6328 11.1016 15.2227 11.8047 14.4258 12.3203Z" fill="#75777B"/>
  </svg>
  