<svg width="14" height="16" viewBox="0 0 14 16" fill="none" xmlns="http://www.w3.org/2000/svg">
  <path d="M5.5 0.919999C5.5 0.411897 5.91324 -0.00546301 6.41799 0.0528408C7.41392 0.167883 8.38219 0.469455 9.27117 0.944629C10.4314 1.5648 11.4208 2.46155 12.1518 3.55544C12.8827 4.64933 13.3325 5.90659 13.4615 7.21586C13.5904 8.52513 13.3945 9.846 12.891 11.0615C12.3876 12.2769 11.5921 13.3495 10.5751 14.1841C9.55817 15.0187 8.35105 15.5896 7.06072 15.8463C5.77039 16.1029 4.43668 16.0374 3.17772 15.6555C2.21312 15.3629 1.31521 14.8915 0.529627 14.2686C0.131491 13.9529 0.134402 13.3656 0.493684 13.0063C0.852966 12.647 1.4321 12.6536 1.84084 12.9554C2.40454 13.3717 3.037 13.69 3.71185 13.8948C4.68124 14.1888 5.7082 14.2393 6.70176 14.0416C7.69531 13.844 8.62479 13.4044 9.40786 12.7617C10.1909 12.1191 10.8034 11.2932 11.1911 10.3573C11.5788 9.42142 11.7296 8.40435 11.6303 7.39621C11.531 6.38807 11.1847 5.41998 10.6219 4.57769C10.0591 3.73539 9.29721 3.0449 8.4038 2.56736C7.78186 2.23493 7.10952 2.01284 6.41659 1.90857C5.91415 1.83297 5.5 1.4281 5.5 0.919999Z" fill="white"/>
  </svg>
  