<svg width="41" height="40" viewBox="0 0 41 40" fill="none" xmlns="http://www.w3.org/2000/svg">
  <g clip-path="url(#clip0_948_14398)">
  <path d="M18.8594 25.9375C18.3906 26.4062 17.5312 26.4062 17.0625 25.9375L12.0625 20.9375C11.5938 20.4688 11.5938 19.6094 12.0625 19.1406C12.5312 18.6719 13.3906 18.6719 13.8594 19.1406L18 23.2812L27.0625 14.1406C27.5312 13.6719 28.3906 13.6719 28.8594 14.1406C29.3281 14.6094 29.3281 15.4688 28.8594 15.9375L18.8594 25.9375ZM40.5 20C40.5 31.0938 31.5156 40 20.5 40C9.40625 40 0.5 31.0938 0.5 20C0.5 8.98438 9.40625 0 20.5 0C31.5156 0 40.5 8.98438 40.5 20ZM20.5 2.5C10.8125 2.5 3 10.3906 3 20C3 29.6875 10.8125 37.5 20.5 37.5C30.1094 37.5 38 29.6875 38 20C38 10.3906 30.1094 2.5 20.5 2.5Z" fill="#4DD037"/>
  </g>
  <defs>
  <clipPath id="clip0_948_14398">
  <rect width="40" height="40" fill="white" transform="translate(0.5)"/>
  </clipPath>
  </defs>
  </svg>
  