<svg width="45" height="41" viewBox="0 0 45 41" fill="none" xmlns="http://www.w3.org/2000/svg">
  <path d="M34.875 16.343C34.0653 16.6441 33.1965 16.8484 32.2836 16.9396C33.2157 16.4711 33.9292 15.7279 34.2673 14.8452C33.393 15.279 32.4279 15.5941 31.3996 15.7649C30.5762 15.0275 29.4049 14.5682 28.1057 14.5682C25.6133 14.5682 23.5924 16.2645 23.5924 18.3554C23.5924 18.652 23.6323 18.9416 23.7093 19.2186C19.959 19.0605 16.6335 17.5523 14.4078 15.2606C14.0188 15.8191 13.7974 16.4699 13.7974 17.1646C13.7974 18.4789 14.5948 19.6386 15.8046 20.3171C15.0649 20.2964 14.3693 20.1256 13.7603 19.8417V19.889C13.7603 21.7238 15.3165 23.255 17.38 23.6035C17.0019 23.6889 16.6033 23.7362 16.1909 23.7362C15.8994 23.7362 15.6176 23.712 15.3413 23.6658C15.9159 25.1717 17.5821 26.2668 19.5563 26.2968C18.0124 27.3123 16.0658 27.9158 13.9514 27.9158C13.5871 27.9158 13.2283 27.8973 12.875 27.8639C14.8725 28.9405 17.2439 29.5682 19.7927 29.5682C28.0948 29.5682 32.6328 23.7962 32.6328 18.7905L32.6177 18.3001C33.5044 17.7692 34.2715 17.1023 34.875 16.343Z" fill="#2C363F"/>
  </svg>
  