<svg width="24" height="24" viewBox="0 0 24 24" fill="none" xmlns="http://www.w3.org/2000/svg">
  <path d="M12 12C13.125 11.9792 14.0729 11.5938 14.8438 10.8438C15.5938 10.0729 15.9792 9.125 16 8C15.9792 6.875 15.5938 5.92708 14.8438 5.15625C14.0729 4.40625 13.125 4.02083 12 4C10.875 4.02083 9.92708 4.40625 9.15625 5.15625C8.40625 5.92708 8.02083 6.875 8 8C8.02083 9.125 8.40625 10.0729 9.15625 10.8438C9.92708 11.5938 10.875 11.9792 12 12ZM13.5938 13.5H10.4062C8.88542 13.5417 7.61458 14.0729 6.59375 15.0938C5.57292 16.1146 5.04167 17.3854 5 18.9062C5 19.2188 5.10417 19.4792 5.3125 19.6875C5.52083 19.8958 5.78125 20 6.09375 20H17.9062C18.2188 20 18.4792 19.8958 18.6875 19.6875C18.8958 19.4792 19 19.2188 19 18.9062C18.9583 17.3854 18.4271 16.1146 17.4062 15.0938C16.3854 14.0729 15.1146 13.5417 13.5938 13.5Z" fill="#75777B"/>
  </svg>
  