<svg width="24" height="24" viewBox="0 0 24 24" fill="none" xmlns="http://www.w3.org/2000/svg">
  <path d="M19.662 17.9593L13.7027 12L19.662 6.04069C20.1127 5.58998 20.1127 4.78873 19.662 4.33803C19.2113 3.88732 18.41 3.88732 17.9593 4.33803L12 10.2973L6.04069 4.33803C5.58998 3.88732 4.78873 3.88732 4.33803 4.33803C3.88732 4.78873 3.88732 5.58998 4.33803 6.04069L10.2973 12L4.33803 17.9593C3.88732 18.41 3.88732 19.2113 4.33803 19.662C4.78873 20.1127 5.58998 20.1127 6.04069 19.662L12 13.7027L17.9593 19.662C18.41 20.1127 19.2113 20.1127 19.662 19.662C20.1127 19.2113 20.1127 18.41 19.662 17.9593Z" fill="#75777B"/>
</svg>
  